<?xml version="1.0" encoding="us-ascii" standalone="no"?><svg xmlns="http://www.w3.org/2000/svg" xmlns:xlink="http://www.w3.org/1999/xlink" contentStyleType="text/css" height="1148.75px" preserveAspectRatio="none" style="width:2581px;height:1148px;" version="1.1" viewBox="0 0 2581 1148" width="2581.25px" zoomAndPan="magnify"><defs><linearGradient id="g3avkvbqn5e0g0" x1="50%" x2="50%" y1="0%" y2="100%"><stop offset="0%" stop-color="#EDF0F2"/><stop offset="100%" stop-color="#E9ECEF"/></linearGradient><linearGradient id="g3avkvbqn5e0g1" x1="50%" x2="50%" y1="0%" y2="100%"><stop offset="0%" stop-color="#59B6EC"/><stop offset="100%" stop-color="#2FA4E7"/></linearGradient><linearGradient id="g3avkvbqn5e0g2" x1="50%" x2="50%" y1="0%" y2="100%"><stop offset="0%" stop-color="#35638F"/><stop offset="100%" stop-color="#033C73"/></linearGradient><linearGradient id="g3avkvbqn5e0g3" x1="50%" x2="50%" y1="0%" y2="100%"><stop offset="0%" stop-color="#FFFFFF"/><stop offset="100%" stop-color="#EDF0F2"/></linearGradient></defs><g><rect fill="url(#g3avkvbqn5e0g0)" height="57.8833" id="_title" rx="5" ry="5" style="stroke:#BABDBF;stroke-width:1.25;" width="250" x="1164.0918" y="25"/><text fill="#2FA4E7" font-family="Verdana" font-size="25" font-weight="bold" lengthAdjust="spacing" textLength="222.5" x="1177.8418" y="63.8843">Login Workflow</text><rect fill="url(#g3avkvbqn5e0g0)" height="30.73" style="stroke:url(#g3avkvbqn5e0g0);stroke-width:1.25;" width="2540.6836" x="18.75" y="97.8833"/><ellipse cx="386.875" cy="147.3633" fill="#033C73" rx="12.5" ry="12.5" style="stroke:#2683B9;stroke-width:1.25;"/><polygon fill="url(#g3avkvbqn5e0g1)" points="323.125,184.8633,463.125,184.8633,450.625,230.5933,310.625,230.5933" style="stroke:#2FA4E7;stroke-width:1.25;"/><text fill="#FFFFFF" font-family="Verdana" font-size="15" lengthAdjust="spacing" textLength="125" x="324.375" y="213.6938">show login form</text><path d="M48.125,246.4783 L48.125,289.7083 A0,0 0 0 0 48.125,289.7083 L349.375,289.7083 A0,0 0 0 0 349.375,289.7083 L349.375,273.0933 L374.375,268.0933 L349.375,263.0933 L349.375,258.9783 L336.875,246.4783 L48.125,246.4783 A0,0 0 0 0 48.125,246.4783 " fill="url(#g3avkvbqn5e0g2)" style="stroke:#033C73;stroke-width:1.25;"/><path d="M336.875,246.4783 L336.875,258.9783 L349.375,258.9783 L336.875,246.4783 " fill="url(#g3avkvbqn5e0g2)" style="stroke:#033C73;stroke-width:1.25;"/><text fill="#FFFFFF" font-family="Verdana" font-size="15" lengthAdjust="spacing" textLength="262.5" x="61.875" y="274.0588">recurring entry point for simplicity</text><ellipse cx="386.875" cy="268.0933" fill="#191970" rx="12.5" ry="12.5" style="stroke:#2683B9;stroke-width:1.25;"/><path d="M391.9336,272.7808 L390.3906,272.7808 L389.3164,269.7339 L384.6094,269.7339 L383.5352,272.7808 L382.0703,272.7808 L386.0352,261.8823 L387.9688,261.8823 L391.9336,272.7808 Z M388.8867,268.5034 L386.9727,263.1323 L385.0391,268.5034 L388.8867,268.5034 Z " fill="#FFFFFF"/><polygon fill="url(#g3avkvbqn5e0g1)" points="324.375,314.7083,461.875,314.7083,449.375,360.4382,311.875,360.4382" style="stroke:#2FA4E7;stroke-width:1.25;"/><text fill="#FFFFFF" font-family="Verdana" font-size="15" lengthAdjust="spacing" textLength="122.5" x="325.625" y="343.5388">user clicks login</text><path d="M25,377.5732 L25,439.0332 A0,0 0 0 0 25,439.0332 L287.5,439.0332 A0,0 0 0 0 287.5,439.0332 L287.5,413.3032 L312.5,408.3032 L287.5,403.3032 L287.5,390.0732 L275,377.5732 L25,377.5732 A0,0 0 0 0 25,377.5732 " fill="url(#g3avkvbqn5e0g2)" style="stroke:#033C73;stroke-width:1.25;"/><path d="M275,377.5732 L275,390.0732 L287.5,390.0732 L275,377.5732 " fill="url(#g3avkvbqn5e0g2)" style="stroke:#033C73;stroke-width:1.25;"/><text fill="#FFFFFF" font-family="Verdana" font-size="15" lengthAdjust="spacing" textLength="197.5" x="38.75" y="405.1538">validate length and basic</text><text fill="#FFFFFF" font-family="Verdana" font-size="15" lengthAdjust="spacing" textLength="223.75" x="38.75" y="423.3838">syntax for email &amp; password</text><rect fill="url(#g3avkvbqn5e0g1)" height="45.73" rx="5" ry="5" style="stroke:#2FA4E7;stroke-width:1.25;" width="148.75" x="312.5" y="385.4382"/><text fill="#FFFFFF" font-family="Verdana" font-size="15" lengthAdjust="spacing" textLength="121.25" x="326.25" y="414.2688">basic validation</text><polygon fill="url(#g3avkvbqn5e0g3)" points="358.125,464.0332,415.625,464.0332,430.625,479.3982,415.625,494.7632,358.125,494.7632,343.125,479.3982,358.125,464.0332" style="stroke:#BABDBF;stroke-width:1.25;"/><text fill="#343A40" font-family="Verdana" font-size="15" lengthAdjust="spacing" textLength="45" x="364.375" y="485.3638">valid?</text><text fill="#343A40" font-family="Verdana" font-size="15" lengthAdjust="spacing" textLength="37.5" x="299.375" y="469.9988">false</text><text fill="#343A40" font-family="Verdana" font-size="15" lengthAdjust="spacing" textLength="32.5" x="436.875" y="469.9988">true</text><polygon fill="#BDB76B" points="61.3867,519.7632,227.6367,519.7632,215.1367,565.4932,48.8867,565.4932" style="stroke:#2FA4E7;stroke-width:1.25;"/><text fill="#FFFFFF" font-family="Verdana" font-size="15" lengthAdjust="spacing" textLength="151.25" x="62.6367" y="548.5938">alert "invalid input"</text><ellipse cx="138.2617" cy="621.7432" fill="#191970" rx="12.5" ry="12.5" style="stroke:#2683B9;stroke-width:1.25;"/><path d="M143.3203,626.4307 L141.7773,626.4307 L140.7031,623.3838 L135.9961,623.3838 L134.9219,626.4307 L133.457,626.4307 L137.4219,615.5322 L139.3555,615.5322 L143.3203,626.4307 Z M140.2734,622.1533 L138.3594,616.7822 L136.4258,622.1533 L140.2734,622.1533 Z " fill="#FFFFFF"/><polygon fill="#BDB76B" points="277.6367,575.4932,513.8867,575.4932,501.3867,621.2231,265.1367,621.2231" style="stroke:#2FA4E7;stroke-width:1.25;"/><text fill="#FFFFFF" font-family="Verdana" font-size="15" lengthAdjust="spacing" textLength="221.25" x="278.8867" y="604.3237">alert "invalid email address"</text><ellipse cx="389.5117" cy="677.4731" fill="#191970" rx="12.5" ry="12.5" style="stroke:#2683B9;stroke-width:1.25;"/><path d="M394.5703,682.1606 L393.0273,682.1606 L391.9531,679.1138 L387.2461,679.1138 L386.1719,682.1606 L384.707,682.1606 L388.6719,671.2622 L390.6055,671.2622 L394.5703,682.1606 Z M391.5234,677.8833 L389.6094,672.5122 L387.6758,677.8833 L391.5234,677.8833 Z " fill="#FFFFFF"/><polygon fill="#CD5C5C" points="538.8867,631.2231,743.8867,631.2231,731.3867,676.9531,526.3867,676.9531" style="stroke:#2FA4E7;stroke-width:1.25;"/><text fill="#FFFFFF" font-family="Verdana" font-size="15" lengthAdjust="spacing" textLength="190" x="540.1367" y="660.0537">alert "Account is locked"</text><ellipse cx="635.1367" cy="733.2031" fill="#191970" rx="12.5" ry="12.5" style="stroke:#2683B9;stroke-width:1.25;"/><path d="M640.1953,737.8906 L638.6523,737.8906 L637.5781,734.8438 L632.8711,734.8438 L631.7969,737.8906 L630.332,737.8906 L634.2969,726.9922 L636.2305,726.9922 L640.1953,737.8906 Z M637.1484,733.6133 L635.2344,728.2422 L633.3008,733.6133 L637.1484,733.6133 Z " fill="#FFFFFF"/><polygon fill="#008000" points="768.8867,864.1431,913.8867,864.1431,901.3867,909.873,756.3867,909.873" style="stroke:#2FA4E7;stroke-width:1.25;"/><text fill="#FFFFFF" font-family="Verdana" font-size="15" lengthAdjust="spacing" textLength="130" x="770.1367" y="892.9736">Welcome Screen</text><ellipse cx="835.1367" cy="967.373" fill="none" rx="13.75" ry="13.75" style="stroke:#2683B9;stroke-width:1.25;"/><ellipse cx="835.1367" cy="967.373" fill="#2683B9" rx="7.5" ry="7.5" style="stroke:#13415C;stroke-width:1.25;"/><polygon fill="#F08080" points="938.8867,915.3931,1245.1367,915.3931,1232.6367,961.123,926.3867,961.123" style="stroke:#2FA4E7;stroke-width:1.25;"/><text fill="#FFFFFF" font-family="Verdana" font-size="15" lengthAdjust="spacing" textLength="291.25" x="940.1367" y="944.2236">alert "failed login attempt &lt;trials&gt;/3"</text><ellipse cx="1085.7617" cy="1017.373" fill="#191970" rx="12.5" ry="12.5" style="stroke:#2683B9;stroke-width:1.25;"/><path d="M1090.8203,1022.0605 L1089.2773,1022.0605 L1088.2031,1019.0137 L1083.4961,1019.0137 L1082.4219,1022.0605 L1080.957,1022.0605 L1084.9219,1011.1621 L1086.8555,1011.1621 L1090.8203,1022.0605 Z M1087.7734,1017.7832 L1085.8594,1012.4121 L1083.9258,1017.7832 L1087.7734,1017.7832 Z " fill="#FFFFFF"/><polygon fill="#F08080" points="1270.1367,1004.873,1527.6367,1004.873,1515.1367,1068.833,1257.6367,1068.833" style="stroke:#2FA4E7;stroke-width:1.25;"/><text fill="#FFFFFF" font-family="Verdana" font-size="15" lengthAdjust="spacing" textLength="225" x="1271.3867" y="1033.7036">alert "3 failed login attempts</text><text fill="#FFFFFF" font-family="Verdana" font-size="15" lengthAdjust="spacing" textLength="242.5" x="1271.3867" y="1051.9336">Your account has been locked"</text><ellipse cx="1392.6367" cy="1106.333" fill="#191970" rx="12.5" ry="12.5" style="stroke:#2683B9;stroke-width:1.25;"/><path d="M1397.6953,1111.0205 L1396.1523,1111.0205 L1395.0781,1107.9736 L1390.3711,1107.9736 L1389.2969,1111.0205 L1387.832,1111.0205 L1391.7969,1100.1221 L1393.7305,1100.1221 L1397.6953,1111.0205 Z M1394.6484,1106.7432 L1392.7344,1101.3721 L1390.8008,1106.7432 L1394.6484,1106.7432 Z " fill="#FFFFFF"/><line style="stroke:#033C73;stroke-width:2.5;" x1="18.75" x2="18.75" y1="97.8833" y2="1133.833"/><rect fill="#D3D3D3" height="1035.9497" style="stroke:#D3D3D3;stroke-width:1.25;" width="1005.5469" x="1546.3867" y="97.8833"/><polygon fill="url(#g3avkvbqn5e0g3)" points="1593.8867,519.7632,1707.6367,519.7632,1722.6367,535.1282,1707.6367,550.4932,1593.8867,550.4932,1578.8867,535.1282,1593.8867,519.7632" style="stroke:#BABDBF;stroke-width:1.25;"/><text fill="#343A40" font-family="Verdana" font-size="15" lengthAdjust="spacing" textLength="101.25" x="1600.1367" y="541.0938">email exists?</text><text fill="#343A40" font-family="Verdana" font-size="15" lengthAdjust="spacing" textLength="20" x="1552.6367" y="525.7288">no</text><text fill="#343A40" font-family="Verdana" font-size="15" lengthAdjust="spacing" textLength="27.5" x="1728.8867" y="525.7288">yes</text><polygon fill="url(#g3avkvbqn5e0g3)" points="1817.6367,575.4932,1955.1367,575.4932,1970.1367,590.8582,1955.1367,606.2231,1817.6367,606.2231,1802.6367,590.8582,1817.6367,575.4932" style="stroke:#BABDBF;stroke-width:1.25;"/><text fill="#343A40" font-family="Verdana" font-size="15" lengthAdjust="spacing" textLength="125" x="1823.8867" y="596.8237">account locked?</text><text fill="#343A40" font-family="Verdana" font-size="15" lengthAdjust="spacing" textLength="27.5" x="1768.8867" y="581.4587">yes</text><text fill="#343A40" font-family="Verdana" font-size="15" lengthAdjust="spacing" textLength="20" x="1976.3867" y="581.4587">no</text><polygon fill="url(#g3avkvbqn5e0g3)" points="2032.0898,631.2231,2183.3398,631.2231,2198.3398,646.5881,2183.3398,661.9531,2032.0898,661.9531,2017.0898,646.5881,2032.0898,631.2231" style="stroke:#BABDBF;stroke-width:1.25;"/><text fill="#343A40" font-family="Verdana" font-size="15" lengthAdjust="spacing" textLength="138.75" x="2038.3398" y="652.5537">password match?</text><text fill="#343A40" font-family="Verdana" font-size="15" lengthAdjust="spacing" textLength="27.5" x="1983.3398" y="637.1887">yes</text><text fill="#FF0000" font-family="Verdana" font-size="15" lengthAdjust="spacing" textLength="20" x="2204.5898" y="637.1887">no</text><rect fill="url(#g3avkvbqn5e0g1)" height="45.73" rx="5" ry="5" style="stroke:#2FA4E7;stroke-width:1.25;" width="97.5" x="1841.3086" y="686.9531"/><text fill="#FFFFFF" font-family="Verdana" font-size="15" lengthAdjust="spacing" textLength="70" x="1855.0586" y="715.7837">trials = 0</text><rect fill="url(#g3avkvbqn5e0g1)" height="63.96" rx="5" ry="5" style="stroke:#2FA4E7;stroke-width:1.25;" width="137.5" x="1821.3086" y="770.7031"/><text fill="#FFFFFF" font-family="Verdana" font-size="15" lengthAdjust="spacing" textLength="110" x="1835.0586" y="799.5337">setup session</text><text fill="#FFFFFF" font-family="Verdana" font-size="15" lengthAdjust="spacing" textLength="98.75" x="1835.0586" y="817.7637">&amp; log user in</text><path d="M2050.9961,768.7231 L2050.9961,830.1831 A0,0 0 0 0 2050.9961,830.1831 L2255.9961,830.1831 A0,0 0 0 0 2255.9961,830.1831 L2255.9961,804.4531 L2280.9961,799.4531 L2255.9961,794.4531 L2255.9961,781.2231 L2243.4961,768.7231 L2050.9961,768.7231 A0,0 0 0 0 2050.9961,768.7231 " fill="url(#g3avkvbqn5e0g2)" style="stroke:#033C73;stroke-width:1.25;"/><path d="M2243.4961,768.7231 L2243.4961,781.2231 L2255.9961,781.2231 L2243.4961,768.7231 " fill="url(#g3avkvbqn5e0g2)" style="stroke:#033C73;stroke-width:1.25;"/><text fill="#FFFFFF" font-family="Verdana" font-size="15" lengthAdjust="spacing" textLength="166.25" x="2064.7461" y="796.3037">Assuming trials is set</text><text fill="#FFFFFF" font-family="Verdana" font-size="15" lengthAdjust="spacing" textLength="133.75" x="2069.7461" y="814.5337">to 0 upon signup</text><rect fill="url(#g3avkvbqn5e0g1)" height="45.73" rx="5" ry="5" style="stroke:#2FA4E7;stroke-width:1.25;" width="88.75" x="2280.9961" y="776.5881"/><text fill="#FFFFFF" font-family="Verdana" font-size="15" lengthAdjust="spacing" textLength="61.25" x="2294.7461" y="805.4187">trials++</text><polygon fill="url(#g3avkvbqn5e0g3)" points="2278.4961,859.6631,2372.2461,859.6631,2387.2461,875.0281,2372.2461,890.3931,2278.4961,890.3931,2263.4961,875.0281,2278.4961,859.6631" style="stroke:#BABDBF;stroke-width:1.25;"/><text fill="#343A40" font-family="Verdana" font-size="15" lengthAdjust="spacing" textLength="81.25" x="2284.7461" y="880.9937">trials &gt;= 3</text><text fill="#343A40" font-family="Verdana" font-size="15" lengthAdjust="spacing" textLength="20" x="2237.2461" y="865.6287">no</text><text fill="#343A40" font-family="Verdana" font-size="15" lengthAdjust="spacing" textLength="27.5" x="2393.4961" y="865.6287">yes</text><rect fill="#F08080" height="45.73" rx="5" ry="5" style="stroke:#2FA4E7;stroke-width:1.25;" width="123.75" x="2423.1836" y="915.3931"/><text fill="#FFFFFF" font-family="Verdana" font-size="15" lengthAdjust="spacing" textLength="96.25" x="2436.9336" y="944.2236">lock account</text><line style="stroke:#033C73;stroke-width:2.5;" x1="1546.3867" x2="1546.3867" y1="97.8833" y2="1133.833"/><line style="stroke:#033C73;stroke-width:2.5;" x1="2551.9336" x2="2551.9336" y1="97.8833" y2="1133.833"/><line style="stroke:#2FA4E7;stroke-width:3.75;" x1="386.875" x2="386.875" y1="159.8633" y2="184.8633"/><polygon fill="#2FA4E7" points="381.875,172.3633,386.875,184.8633,391.875,172.3633,386.875,177.3633" style="stroke:#2FA4E7;stroke-width:1.25;"/><line style="stroke:#2FA4E7;stroke-width:3.75;" x1="386.875" x2="386.875" y1="230.5933" y2="255.5933"/><polygon fill="#2FA4E7" points="381.875,243.0933,386.875,255.5933,391.875,243.0933,386.875,248.0933" style="stroke:#2FA4E7;stroke-width:1.25;"/><line style="stroke:#2FA4E7;stroke-width:3.75;" x1="386.875" x2="386.875" y1="280.5933" y2="314.7083"/><polygon fill="#2FA4E7" points="381.875,302.2083,386.875,314.7083,391.875,302.2083,386.875,307.2083" style="stroke:#2FA4E7;stroke-width:1.25;"/><line style="stroke:#2FA4E7;stroke-width:3.75;" x1="386.875" x2="386.875" y1="360.4382" y2="385.4382"/><polygon fill="#2FA4E7" points="381.875,372.9382,386.875,385.4382,391.875,372.9382,386.875,377.9382" style="stroke:#2FA4E7;stroke-width:1.25;"/><line style="stroke:#2FA4E7;stroke-width:3.75;" x1="138.2617" x2="138.2617" y1="565.4932" y2="609.2432"/><polygon fill="#2FA4E7" points="133.2617,596.7432,138.2617,609.2432,143.2617,596.7432,138.2617,601.7432" style="stroke:#2FA4E7;stroke-width:1.25;"/><line style="stroke:#2FA4E7;stroke-width:3.75;" x1="389.5117" x2="389.5117" y1="621.2231" y2="664.9731"/><polygon fill="#2FA4E7" points="384.5117,652.4731,389.5117,664.9731,394.5117,652.4731,389.5117,657.4731" style="stroke:#2FA4E7;stroke-width:1.25;"/><line style="stroke:#2FA4E7;stroke-width:3.75;" x1="635.1367" x2="635.1367" y1="676.9531" y2="720.7031"/><polygon fill="#2FA4E7" points="630.1367,708.2031,635.1367,720.7031,640.1367,708.2031,635.1367,713.2031" style="stroke:#2FA4E7;stroke-width:1.25;"/><line style="stroke:#2FA4E7;stroke-width:3.75;" x1="835.1367" x2="835.1367" y1="909.873" y2="953.623"/><polygon fill="#2FA4E7" points="830.1367,941.123,835.1367,953.623,840.1367,941.123,835.1367,946.123" style="stroke:#2FA4E7;stroke-width:1.25;"/><line style="stroke:#2FA4E7;stroke-width:3.75;" x1="1085.7617" x2="1085.7617" y1="961.123" y2="1004.873"/><polygon fill="#2FA4E7" points="1080.7617,992.373,1085.7617,1004.873,1090.7617,992.373,1085.7617,997.373" style="stroke:#2FA4E7;stroke-width:1.25;"/><line style="stroke:#2FA4E7;stroke-width:3.75;" x1="1392.6367" x2="1392.6367" y1="1068.833" y2="1093.833"/><polygon fill="#2FA4E7" points="1387.6367,1081.333,1392.6367,1093.833,1397.6367,1081.333,1392.6367,1086.333" style="stroke:#2FA4E7;stroke-width:1.25;"/><line style="stroke:#CD5C5C;stroke-width:3.75;" x1="343.125" x2="138.2617" y1="479.3982" y2="479.3982"/><line style="stroke:#CD5C5C;stroke-width:3.75;" x1="138.2617" x2="138.2617" y1="479.3982" y2="519.7632"/><polygon fill="#CD5C5C" points="133.2617,507.2632,138.2617,519.7632,143.2617,507.2632,138.2617,512.2632" style="stroke:#CD5C5C;stroke-width:1.25;"/><line style="stroke:#2FA4E7;stroke-width:3.75;" x1="386.875" x2="386.875" y1="431.1682" y2="464.0332"/><polygon fill="#2FA4E7" points="381.875,451.5332,386.875,464.0332,391.875,451.5332,386.875,456.5332" style="stroke:#2FA4E7;stroke-width:1.25;"/><line style="stroke:#2FA4E7;stroke-width:3.75;" x1="1890.0586" x2="1890.0586" y1="732.6831" y2="770.7031"/><polygon fill="#2FA4E7" points="1885.0586,758.2031,1890.0586,770.7031,1895.0586,758.2031,1890.0586,763.2031" style="stroke:#2FA4E7;stroke-width:1.25;"/><line style="stroke:#2FA4E7;stroke-width:3.75;" x1="2198.3398" x2="2325.3711" y1="646.5881" y2="646.5881"/><line style="stroke:#2FA4E7;stroke-width:3.75;" x1="2325.3711" x2="2325.3711" y1="646.5881" y2="776.5881"/><polygon fill="#2FA4E7" points="2320.3711,764.0881,2325.3711,776.5881,2330.3711,764.0881,2325.3711,769.0881" style="stroke:#2FA4E7;stroke-width:1.25;"/><line style="stroke:#2FA4E7;stroke-width:3.75;" x1="2387.2461" x2="2485.0586" y1="875.0281" y2="875.0281"/><line style="stroke:#2FA4E7;stroke-width:3.75;" x1="2485.0586" x2="2485.0586" y1="875.0281" y2="915.3931"/><polygon fill="#2FA4E7" points="2480.0586,902.8931,2485.0586,915.3931,2490.0586,902.8931,2485.0586,907.8931" style="stroke:#2FA4E7;stroke-width:1.25;"/><line style="stroke:#2FA4E7;stroke-width:3.75;" x1="2325.3711" x2="2325.3711" y1="822.3181" y2="859.6631"/><polygon fill="#2FA4E7" points="2320.3711,847.1631,2325.3711,859.6631,2330.3711,847.1631,2325.3711,852.1631" style="stroke:#2FA4E7;stroke-width:1.25;"/><line style="stroke:#2FA4E7;stroke-width:3.75;" x1="2017.0898" x2="1890.0586" y1="646.5881" y2="646.5881"/><line style="stroke:#2FA4E7;stroke-width:3.75;" x1="1890.0586" x2="1890.0586" y1="646.5881" y2="686.9531"/><polygon fill="#2FA4E7" points="1885.0586,674.4531,1890.0586,686.9531,1895.0586,674.4531,1890.0586,679.4531" style="stroke:#2FA4E7;stroke-width:1.25;"/><line style="stroke:#006400;stroke-width:3.75;" x1="1970.1367" x2="2107.7148" y1="590.8582" y2="590.8582"/><line style="stroke:#006400;stroke-width:3.75;" x1="2107.7148" x2="2107.7148" y1="590.8582" y2="631.2231"/><polygon fill="#006400" points="2102.7148,618.7231,2107.7148,631.2231,2112.7148,618.7231,2107.7148,623.7231" style="stroke:#006400;stroke-width:1.25;"/><line style="stroke:#006400;stroke-width:3.75;" x1="1722.6367" x2="1886.3867" y1="535.1282" y2="535.1282"/><line style="stroke:#006400;stroke-width:3.75;" x1="1886.3867" x2="1886.3867" y1="535.1282" y2="575.4932"/><polygon fill="#006400" points="1881.3867,562.9932,1886.3867,575.4932,1891.3867,562.9932,1886.3867,567.9932" style="stroke:#006400;stroke-width:1.25;"/><line style="stroke:#006400;stroke-width:3.75;" x1="1890.0586" x2="1890.0586" y1="834.6631" y2="842.2681"/><line style="stroke:#006400;stroke-width:3.75;" x1="1890.0586" x2="835.1367" y1="842.2681" y2="842.2681"/><line style="stroke:#006400;stroke-width:3.75;" x1="835.1367" x2="835.1367" y1="842.2681" y2="864.1431"/><polygon fill="#006400" points="830.1367,851.6431,835.1367,864.1431,840.1367,851.6431,835.1367,856.6431" style="stroke:#006400;stroke-width:1.25;"/><line style="stroke:#CD5C5C;stroke-width:3.75;" x1="2485.0586" x2="2485.0586" y1="961.123" y2="982.998"/><line style="stroke:#CD5C5C;stroke-width:3.75;" x1="2485.0586" x2="1392.6367" y1="982.998" y2="982.998"/><line style="stroke:#CD5C5C;stroke-width:3.75;" x1="1392.6367" x2="1392.6367" y1="982.998" y2="1004.873"/><polygon fill="#CD5C5C" points="1387.6367,992.373,1392.6367,1004.873,1397.6367,992.373,1392.6367,997.373" style="stroke:#CD5C5C;stroke-width:1.25;"/><line style="stroke:#CD5C5C;stroke-width:3.75;" x1="2263.4961" x2="1085.7617" y1="875.0281" y2="875.0281"/><line style="stroke:#CD5C5C;stroke-width:3.75;" x1="1085.7617" x2="1085.7617" y1="875.0281" y2="915.3931"/><polygon fill="#CD5C5C" points="1080.7617,902.8931,1085.7617,915.3931,1090.7617,902.8931,1085.7617,907.8931" style="stroke:#CD5C5C;stroke-width:1.25;"/><line style="stroke:#CD5C5C;stroke-width:3.75;" x1="1802.6367" x2="635.1367" y1="590.8582" y2="590.8582"/><line style="stroke:#CD5C5C;stroke-width:3.75;" x1="635.1367" x2="635.1367" y1="590.8582" y2="631.2231"/><polygon fill="#CD5C5C" points="630.1367,618.7231,635.1367,631.2231,640.1367,618.7231,635.1367,623.7231" style="stroke:#CD5C5C;stroke-width:1.25;"/><line style="stroke:#CD5C5C;stroke-width:3.75;" x1="1578.8867" x2="389.5117" y1="535.1282" y2="535.1282"/><line style="stroke:#CD5C5C;stroke-width:3.75;" x1="389.5117" x2="389.5117" y1="535.1282" y2="575.4932"/><polygon fill="#CD5C5C" points="384.5117,562.9932,389.5117,575.4932,394.5117,562.9932,389.5117,567.9932" style="stroke:#CD5C5C;stroke-width:1.25;"/><line style="stroke:#006400;stroke-width:3.75;" x1="430.625" x2="1650.7617" y1="479.3982" y2="479.3982"/><line style="stroke:#006400;stroke-width:3.75;" x1="1650.7617" x2="1650.7617" y1="479.3982" y2="519.7632"/><polygon fill="#006400" points="1645.7617,507.2632,1650.7617,519.7632,1655.7617,507.2632,1650.7617,512.2632" style="stroke:#006400;stroke-width:1.25;"/><text fill="#2FA4E7" font-family="Verdana" font-size="15" lengthAdjust="spacing" textLength="76.25" x="744.4434" y="119.2139">Front End</text><text fill="#2FA4E7" font-family="Verdana" font-size="15" lengthAdjust="spacing" textLength="71.25" x="2013.5352" y="119.2139">Back End</text><!--SRC=[lPHDRzim38Rl-XLS0xGfYimfUdFQ31dGOOVTTYY6PIWKMR45ov8Xqaq3vCTF_chTsawpotIo9FFZVIZo8Y7ACGo2N7D3HQO_2vi5N91wKhIVHOh7ZcUpZIJEBbO59TQ5yDqYyWpkzOudcB1FbCXCWf2kq98RnaYHbl33nih0WtNfLjiTGy7zuVLyFeUTYYXXxF3DMKDmRw83OqZS4JjCj8eJyZ7tXwzSfFNbcnz3JEmETELyQrqMi4cc8bEQRNGXm-dgaXbB4hJSKkYaA9nJ9WPfoEqXjyfxydQ0Aikr4bubqtmZTUtoiNJ9mWAb0-6lKwpF0nPkE2e1JrohY9EoPj49qnwNMnDJ0jn4K1ci3UuDyUSgfiouqd0EEKVSMHSnjPrMbbykmKCqCDroZVAIWL-ptnDbV06Caz6VsR8wcqJSfMd2KnLwcexWJ9dA0IYJ5tGMr7_rW9IdaQ-XI9Zq0M1AhdWDKpgDdPIc3TDXNsvzbdNcybaXuKkonjOknhAjN7LgrvwDgwZ3y2Xo4h5HCwweewhyh9Nj9Rx9gYTkG60ZaWjX2v-ijYALhpLvu_4ZlSTqlwXviMprhvh82flW7UqVCnXWqQwQIRTGnx2Ce6dmjAyMCauYEOud9AVyKuOxc2_wboYfo05zZNqVhSrvsMDGzPmoYo7Kezb-YBgo2X-azdDDmazHRljiaMm-mErMMEq7dY_KyZt28wZALOyKp1_zn_pexVKOkwkhFehNYRD2BB9ohZMW_SlnLDS6oC8SYjmQF-5YK-Gz7xwIZSto3cw6UlbKkAVqGLM4QgWBwxXk7_pMzxcCcZ7EYMIM4zpMUIs3cu7dVreBTDgWTpSm7qwivdiHPOz2CoqM_nFR3Go1mxNvPGlNPWG9HzZuTpu-I_uTPhd-0W00]--></g></svg>