<?xml version="1.0" encoding="us-ascii" standalone="no"?><svg xmlns="http://www.w3.org/2000/svg" xmlns:xlink="http://www.w3.org/1999/xlink" contentStyleType="text/css" height="463.6812px" preserveAspectRatio="none" style="width:1041px;height:463px;background:#FFFFFF;" version="1.1" viewBox="0 0 1041 463" width="1041.8953px" zoomAndPan="magnify"><defs><linearGradient id="g7fnz5gx169pb0" x1="50%" x2="50%" y1="0%" y2="100%"><stop offset="0%" stop-color="#EDF0F2"/><stop offset="100%" stop-color="#E9ECEF"/></linearGradient><linearGradient id="g7fnz5gx169pb1" x1="50%" x2="50%" y1="0%" y2="100%"><stop offset="0%" stop-color="#59B6EC"/><stop offset="100%" stop-color="#2FA4E7"/></linearGradient><linearGradient id="g7fnz5gx169pb2" x1="50%" x2="50%" y1="0%" y2="100%"><stop offset="0%" stop-color="#35638F"/><stop offset="100%" stop-color="#033C73"/></linearGradient><linearGradient id="g7fnz5gx169pb3" x1="50%" x2="50%" y1="0%" y2="100%"><stop offset="0%" stop-color="#FFFFFF"/><stop offset="100%" stop-color="#EDF0F2"/></linearGradient></defs><g><rect fill="none" height="23.364" id="_title" rx="2.0182" ry="2.0182" style="stroke:#BABDBF;stroke-width:0.5045497776196856;" width="100.91" x="469.8738" y="10.091"/><text fill="#2FA4E7" font-family="Verdana" font-size="10.091" font-weight="bold" lengthAdjust="spacing" textLength="89.8099" x="475.4239" y="25.7862">Login Workflow</text><rect fill="url(#g7fnz5gx169pb0)" height="12.4038" style="stroke:url(#g7fnz5gx169pb0);stroke-width:0.5045497776196856;" width="1025.5211" x="7.5682" y="39.5096"/><rect fill="#F5F5DC" height="418.1506" style="stroke:#F5F5DC;stroke-width:0.5045497776196856;" width="616.615" x="7.5682" y="39.5096"/><ellipse cx="156.1582" cy="59.4817" fill="#033C73" rx="5.0455" ry="5.0455" style="stroke:#2683B9;stroke-width:0.5045497776196856;"/><polygon fill="url(#g7fnz5gx169pb1)" points="130.4261,74.6182,186.9357,74.6182,181.8902,93.0766,125.3806,93.0766" style="stroke:#2FA4E7;stroke-width:0.5045497776196856;"/><text fill="#FFFFFF" font-family="Verdana" font-size="6.0546" lengthAdjust="spacing" textLength="50.455" x="130.9307" y="86.2553">show login form</text><path d="M19.4252,99.4884 L19.4252,116.9378 A0,0 0 0 0 19.4252,116.9378 L141.0217,116.9378 A0,0 0 0 0 141.0217,116.9378 L141.0217,110.2313 L151.1127,108.2131 L141.0217,106.1949 L141.0217,104.5339 L135.9762,99.4884 L19.4252,99.4884 A0,0 0 0 0 19.4252,99.4884 " fill="url(#g7fnz5gx169pb2)" style="stroke:#033C73;stroke-width:0.5045497776196856;"/><path d="M135.9762,99.4884 L135.9762,104.5339 L141.0217,104.5339 L135.9762,99.4884 " fill="url(#g7fnz5gx169pb2)" style="stroke:#033C73;stroke-width:0.5045497776196856;"/><text fill="#FFFFFF" font-family="Verdana" font-size="6.0546" lengthAdjust="spacing" textLength="105.9555" x="24.9752" y="110.6211">recurring entry point for simplicity</text><ellipse cx="156.1582" cy="108.2131" fill="#191970" rx="5.0455" ry="5.0455" style="stroke:#2683B9;stroke-width:0.5045497776196856;"/><path d="M158.2,110.1052 L157.5772,110.1052 L157.1436,108.8753 L155.2437,108.8753 L154.8101,110.1052 L154.2188,110.1052 L155.8192,105.7061 L156.5996,105.7061 L158.2,110.1052 Z M156.9702,108.3787 L156.1976,106.2107 L155.4171,108.3787 L156.9702,108.3787 Z " fill="#FFFFFF"/><polygon fill="url(#g7fnz5gx169pb1)" points="130.9307,127.0288,186.4311,127.0288,181.3856,145.4872,125.8852,145.4872" style="stroke:#2FA4E7;stroke-width:0.5045497776196856;"/><text fill="#FFFFFF" font-family="Verdana" font-size="6.0546" lengthAdjust="spacing" textLength="49.4459" x="131.4352" y="138.6659">user clicks login</text><path d="M10.091,152.4036 L10.091,177.2113 A0,0 0 0 0 10.091,177.2113 L116.0464,177.2113 A0,0 0 0 0 116.0464,177.2113 L116.0464,166.8256 L126.1374,164.8074 L116.0464,162.7892 L116.0464,157.4491 L111.001,152.4036 L10.091,152.4036 A0,0 0 0 0 10.091,152.4036 " fill="url(#g7fnz5gx169pb2)" style="stroke:#033C73;stroke-width:0.5045497776196856;"/><path d="M111.001,152.4036 L111.001,157.4491 L116.0464,157.4491 L111.001,152.4036 " fill="url(#g7fnz5gx169pb2)" style="stroke:#033C73;stroke-width:0.5045497776196856;"/><text fill="#FFFFFF" font-family="Verdana" font-size="6.0546" lengthAdjust="spacing" textLength="79.7189" x="15.641" y="163.5362">validate length and basic</text><text fill="#FFFFFF" font-family="Verdana" font-size="6.0546" lengthAdjust="spacing" textLength="90.3144" x="15.641" y="170.8946">syntax for email &amp; password</text><rect fill="url(#g7fnz5gx169pb1)" height="18.4584" rx="2.0182" ry="2.0182" style="stroke:#2FA4E7;stroke-width:0.5045497776196856;" width="60.0414" x="126.1374" y="155.5782"/><text fill="#FFFFFF" font-family="Verdana" font-size="6.0546" lengthAdjust="spacing" textLength="48.9413" x="131.6875" y="167.2154">basic validation</text><polygon fill="url(#g7fnz5gx169pb3)" points="144.5535,187.3023,167.7628,187.3023,173.8174,193.5042,167.7628,199.7061,144.5535,199.7061,138.4989,193.5042,144.5535,187.3023" style="stroke:#BABDBF;stroke-width:0.5045497776196856;"/><text fill="#343A40" font-family="Verdana" font-size="6.0546" lengthAdjust="spacing" textLength="18.1638" x="147.0763" y="195.9121">valid?</text><text fill="#343A40" font-family="Verdana" font-size="6.0546" lengthAdjust="spacing" textLength="15.1365" x="120.8397" y="189.7102">false</text><text fill="#343A40" font-family="Verdana" font-size="6.0546" lengthAdjust="spacing" textLength="13.1183" x="176.3401" y="189.7102">true</text><polygon fill="#BDB76B" points="24.7781,209.7971,91.8832,209.7971,86.8377,228.2556,19.7326,228.2556" style="stroke:#2FA4E7;stroke-width:0.5045497776196856;"/><text fill="#FFFFFF" font-family="Verdana" font-size="6.0546" lengthAdjust="spacing" textLength="61.0505" x="25.2827" y="221.4343">alert "invalid input"</text><ellipse cx="55.8079" cy="250.9603" fill="#191970" rx="5.0455" ry="5.0455" style="stroke:#2683B9;stroke-width:0.5045497776196856;"/><path d="M57.8498,252.8524 L57.227,252.8524 L56.7934,251.6225 L54.8934,251.6225 L54.4598,252.8524 L53.8686,252.8524 L55.4689,248.4533 L56.2494,248.4533 L57.8498,252.8524 Z M56.6199,251.1259 L55.8474,248.9579 L55.0669,251.1259 L56.6199,251.1259 Z " fill="#FFFFFF"/><polygon fill="#BDB76B" points="112.0652,232.292,207.4251,232.292,202.3796,250.7504,107.0197,250.7504" style="stroke:#2FA4E7;stroke-width:0.5045497776196856;"/><text fill="#FFFFFF" font-family="Verdana" font-size="6.0546" lengthAdjust="spacing" textLength="89.3053" x="112.5698" y="243.9291">alert "invalid email address"</text><ellipse cx="157.2224" cy="273.4551" fill="#191970" rx="5.0455" ry="5.0455" style="stroke:#2683B9;stroke-width:0.5045497776196856;"/><path d="M159.2643,275.3472 L158.6415,275.3472 L158.2079,274.1174 L156.3079,274.1174 L155.8743,275.3472 L155.2831,275.3472 L156.8834,270.9482 L157.6639,270.9482 L159.2643,275.3472 Z M158.0345,273.6207 L157.2619,271.4527 L156.4814,273.6207 L158.0345,273.6207 Z " fill="#FFFFFF"/><polygon fill="#CD5C5C" points="217.5161,254.7868,300.2623,254.7868,295.2168,273.2452,212.4706,273.2452" style="stroke:#2FA4E7;stroke-width:0.5045497776196856;"/><text fill="#FFFFFF" font-family="Verdana" font-size="6.0546" lengthAdjust="spacing" textLength="76.6916" x="218.0207" y="266.424">alert "Account is locked"</text><ellipse cx="256.3665" cy="295.95" fill="#191970" rx="5.0455" ry="5.0455" style="stroke:#2683B9;stroke-width:0.5045497776196856;"/><path d="M258.4083,297.842 L257.7855,297.842 L257.3519,296.6122 L255.452,296.6122 L255.0184,297.842 L254.4271,297.842 L256.0275,293.443 L256.808,293.443 L258.4083,297.842 Z M257.1785,296.1155 L256.4059,293.9475 L255.6254,296.1155 L257.1785,296.1155 Z " fill="#FFFFFF"/><polygon fill="#008000" points="310.3533,348.8026,368.8811,348.8026,363.8356,367.261,305.3078,367.261" style="stroke:#2FA4E7;stroke-width:0.5045497776196856;"/><text fill="#FFFFFF" font-family="Verdana" font-size="6.0546" lengthAdjust="spacing" textLength="52.4732" x="310.8578" y="360.4397">Welcome Screen</text><ellipse cx="337.0944" cy="390.4703" fill="none" rx="5.55" ry="5.55" style="stroke:#2683B9;stroke-width:0.5045497776196856;"/><ellipse cx="337.0944" cy="390.4703" fill="#2683B9" rx="3.0273" ry="3.0273" style="stroke:#13415C;stroke-width:0.5045497776196856;"/><polygon fill="#F08080" points="378.9721,369.4891,502.5868,369.4891,497.5413,387.9475,373.9266,387.9475" style="stroke:#2FA4E7;stroke-width:0.5045497776196856;"/><text fill="#FFFFFF" font-family="Verdana" font-size="6.0546" lengthAdjust="spacing" textLength="117.5601" x="379.4766" y="381.1263">alert "failed login attempt &lt;trials&gt;/3"</text><ellipse cx="438.2567" cy="410.6523" fill="#191970" rx="5.0455" ry="5.0455" style="stroke:#2683B9;stroke-width:0.5045497776196856;"/><path d="M440.2985,412.5443 L439.6757,412.5443 L439.2421,411.3145 L437.3422,411.3145 L436.9086,412.5443 L436.3173,412.5443 L437.9177,408.1453 L438.6981,408.1453 L440.2985,412.5443 Z M439.0687,410.8178 L438.2961,408.6498 L437.5156,410.8178 L439.0687,410.8178 Z " fill="#FFFFFF"/><polygon fill="#F08080" points="512.6778,405.6068,616.615,405.6068,611.5695,431.4236,507.6323,431.4236" style="stroke:#2FA4E7;stroke-width:0.5045497776196856;"/><text fill="#FFFFFF" font-family="Verdana" font-size="6.0546" lengthAdjust="spacing" textLength="90.819" x="513.1823" y="417.2439">alert "3 failed login attempts</text><text fill="#FFFFFF" font-family="Verdana" font-size="6.0546" lengthAdjust="spacing" textLength="97.8827" x="513.1823" y="424.6023">Your account has been locked"</text><ellipse cx="562.1236" cy="446.5601" fill="#191970" rx="5.0455" ry="5.0455" style="stroke:#2683B9;stroke-width:0.5045497776196856;"/><path d="M564.1655,448.4521 L563.5427,448.4521 L563.1091,447.2223 L561.2091,447.2223 L560.7755,448.4521 L560.1843,448.4521 L561.7846,444.0531 L562.5651,444.0531 L564.1655,448.4521 Z M562.9356,446.7256 L562.1631,444.5576 L561.3826,446.7256 L562.9356,446.7256 Z " fill="#FFFFFF"/><line style="stroke:#033C73;stroke-width:1.0090995552393711;" x1="7.5682" x2="7.5682" y1="39.5096" y2="457.6602"/><rect fill="#D3D3D3" height="418.1506" style="stroke:#D3D3D3;stroke-width:0.5045497776196856;" width="405.8788" x="624.1833" y="39.5096"/><polygon fill="url(#g7fnz5gx169pb3)" points="643.3562,209.7971,689.2702,209.7971,695.3248,215.999,689.2702,222.201,643.3562,222.201,637.3016,215.999,643.3562,209.7971" style="stroke:#BABDBF;stroke-width:0.5045497776196856;"/><text fill="#343A40" font-family="Verdana" font-size="6.0546" lengthAdjust="spacing" textLength="40.8685" x="645.8789" y="218.407">email exists?</text><text fill="#343A40" font-family="Verdana" font-size="6.0546" lengthAdjust="spacing" textLength="8.0728" x="626.706" y="212.2051">no</text><text fill="#343A40" font-family="Verdana" font-size="6.0546" lengthAdjust="spacing" textLength="11.1001" x="697.8475" y="212.2051">yes</text><polygon fill="url(#g7fnz5gx169pb3)" points="733.6706,232.292,789.171,232.292,795.2256,238.4939,789.171,244.6958,733.6706,244.6958,727.616,238.4939,733.6706,232.292" style="stroke:#BABDBF;stroke-width:0.5045497776196856;"/><text fill="#343A40" font-family="Verdana" font-size="6.0546" lengthAdjust="spacing" textLength="50.455" x="736.1933" y="240.9018">account locked?</text><text fill="#343A40" font-family="Verdana" font-size="6.0546" lengthAdjust="spacing" textLength="11.1001" x="713.9931" y="234.6999">yes</text><text fill="#343A40" font-family="Verdana" font-size="6.0546" lengthAdjust="spacing" textLength="8.0728" x="797.7484" y="234.6999">no</text><polygon fill="url(#g7fnz5gx169pb3)" points="820.2324,254.7868,881.2829,254.7868,887.3375,260.9887,881.2829,267.1906,820.2324,267.1906,814.1778,260.9887,820.2324,254.7868" style="stroke:#BABDBF;stroke-width:0.5045497776196856;"/><text fill="#343A40" font-family="Verdana" font-size="6.0546" lengthAdjust="spacing" textLength="56.005" x="822.7551" y="263.3967">password match?</text><text fill="#343A40" font-family="Verdana" font-size="6.0546" lengthAdjust="spacing" textLength="11.1001" x="800.5549" y="257.1947">yes</text><text fill="#FF0000" font-family="Verdana" font-size="6.0546" lengthAdjust="spacing" textLength="8.0728" x="889.8603" y="257.1947">no</text><rect fill="url(#g7fnz5gx169pb1)" height="18.4584" rx="2.0182" ry="2.0182" style="stroke:#2FA4E7;stroke-width:0.5045497776196856;" width="39.3549" x="743.2255" y="277.2816"/><text fill="#FFFFFF" font-family="Verdana" font-size="6.0546" lengthAdjust="spacing" textLength="28.2548" x="748.7755" y="288.9188">trials = 0</text><rect fill="url(#g7fnz5gx169pb1)" height="25.8168" rx="2.0182" ry="2.0182" style="stroke:#2FA4E7;stroke-width:0.5045497776196856;" width="55.5005" x="735.1527" y="311.0865"/><text fill="#FFFFFF" font-family="Verdana" font-size="6.0546" lengthAdjust="spacing" textLength="44.4004" x="740.7027" y="322.7236">setup session</text><text fill="#FFFFFF" font-family="Verdana" font-size="6.0546" lengthAdjust="spacing" textLength="39.8594" x="740.7027" y="330.082">&amp; log user in</text><path d="M827.8637,310.2873 L827.8637,335.095 A0,0 0 0 0 827.8637,335.095 L910.6099,335.095 A0,0 0 0 0 910.6099,335.095 L910.6099,324.7093 L920.7009,322.6911 L910.6099,320.6729 L910.6099,315.3328 L905.5644,310.2873 L827.8637,310.2873 A0,0 0 0 0 827.8637,310.2873 " fill="url(#g7fnz5gx169pb2)" style="stroke:#033C73;stroke-width:0.5045497776196856;"/><path d="M905.5644,310.2873 L905.5644,315.3328 L910.6099,315.3328 L905.5644,310.2873 " fill="url(#g7fnz5gx169pb2)" style="stroke:#033C73;stroke-width:0.5045497776196856;"/><text fill="#FFFFFF" font-family="Verdana" font-size="6.0546" lengthAdjust="spacing" textLength="67.1051" x="833.4137" y="321.4199">Assuming trials is set</text><text fill="#FFFFFF" font-family="Verdana" font-size="6.0546" lengthAdjust="spacing" textLength="53.9868" x="835.4319" y="328.7782">to 0 upon signup</text><rect fill="url(#g7fnz5gx169pb1)" height="18.4584" rx="2.0182" ry="2.0182" style="stroke:#2FA4E7;stroke-width:0.5045497776196856;" width="35.823" x="920.7009" y="313.4619"/><text fill="#FFFFFF" font-family="Verdana" font-size="6.0546" lengthAdjust="spacing" textLength="24.7229" x="926.2509" y="325.0991">trials++</text><polygon fill="url(#g7fnz5gx169pb3)" points="919.6918,346.9943,957.533,346.9943,963.5876,353.1962,957.533,359.3981,919.6918,359.3981,913.6372,353.1962,919.6918,346.9943" style="stroke:#BABDBF;stroke-width:0.5045497776196856;"/><text fill="#343A40" font-family="Verdana" font-size="6.0546" lengthAdjust="spacing" textLength="32.7957" x="922.2145" y="355.6041">trials &gt;= 3</text><text fill="#343A40" font-family="Verdana" font-size="6.0546" lengthAdjust="spacing" textLength="8.0728" x="903.0416" y="349.4022">no</text><text fill="#343A40" font-family="Verdana" font-size="6.0546" lengthAdjust="spacing" textLength="11.1001" x="966.1103" y="349.4022">yes</text><rect fill="#F08080" height="18.4584" rx="2.0182" ry="2.0182" style="stroke:#2FA4E7;stroke-width:0.5045497776196856;" width="49.9504" x="978.0934" y="369.4891"/><text fill="#FFFFFF" font-family="Verdana" font-size="6.0546" lengthAdjust="spacing" textLength="38.8503" x="983.6434" y="381.1263">lock account</text><line style="stroke:#033C73;stroke-width:1.0090995552393711;" x1="624.1833" x2="624.1833" y1="39.5096" y2="457.6602"/><line style="stroke:#033C73;stroke-width:1.0090995552393711;" x1="1030.062" x2="1030.062" y1="39.5096" y2="457.6602"/><line style="stroke:#2FA4E7;stroke-width:1.5136493328590568;" x1="156.1582" x2="156.1582" y1="64.5272" y2="74.6182"/><polygon fill="#2FA4E7" points="154.14,69.5727,156.1582,74.6182,158.1764,69.5727,156.1582,71.5909" style="stroke:#2FA4E7;stroke-width:0.5045497776196856;"/><line style="stroke:#2FA4E7;stroke-width:1.5136493328590568;" x1="156.1582" x2="156.1582" y1="93.0766" y2="103.1676"/><polygon fill="#2FA4E7" points="154.14,98.1221,156.1582,103.1676,158.1764,98.1221,156.1582,100.1403" style="stroke:#2FA4E7;stroke-width:0.5045497776196856;"/><line style="stroke:#2FA4E7;stroke-width:1.5136493328590568;" x1="156.1582" x2="156.1582" y1="113.2586" y2="127.0288"/><polygon fill="#2FA4E7" points="154.14,121.9833,156.1582,127.0288,158.1764,121.9833,156.1582,124.0015" style="stroke:#2FA4E7;stroke-width:0.5045497776196856;"/><line style="stroke:#2FA4E7;stroke-width:1.5136493328590568;" x1="156.1582" x2="156.1582" y1="145.4872" y2="155.5782"/><polygon fill="#2FA4E7" points="154.14,150.5327,156.1582,155.5782,158.1764,150.5327,156.1582,152.5509" style="stroke:#2FA4E7;stroke-width:0.5045497776196856;"/><line style="stroke:#2FA4E7;stroke-width:1.5136493328590568;" x1="55.8079" x2="55.8079" y1="228.2556" y2="245.9148"/><polygon fill="#2FA4E7" points="53.7897,240.8693,55.8079,245.9148,57.8261,240.8693,55.8079,242.8875" style="stroke:#2FA4E7;stroke-width:0.5045497776196856;"/><line style="stroke:#2FA4E7;stroke-width:1.5136493328590568;" x1="157.2224" x2="157.2224" y1="250.7504" y2="268.4096"/><polygon fill="#2FA4E7" points="155.2042,263.3641,157.2224,268.4096,159.2406,263.3641,157.2224,265.3823" style="stroke:#2FA4E7;stroke-width:0.5045497776196856;"/><line style="stroke:#2FA4E7;stroke-width:1.5136493328590568;" x1="256.3665" x2="256.3665" y1="273.2452" y2="290.9045"/><polygon fill="#2FA4E7" points="254.3483,285.859,256.3665,290.9045,258.3847,285.859,256.3665,287.8772" style="stroke:#2FA4E7;stroke-width:0.5045497776196856;"/><line style="stroke:#2FA4E7;stroke-width:1.5136493328590568;" x1="337.0944" x2="337.0944" y1="367.261" y2="384.9202"/><polygon fill="#2FA4E7" points="335.0762,379.8747,337.0944,384.9202,339.1126,379.8747,337.0944,381.8929" style="stroke:#2FA4E7;stroke-width:0.5045497776196856;"/><line style="stroke:#2FA4E7;stroke-width:1.5136493328590568;" x1="438.2567" x2="438.2567" y1="387.9475" y2="405.6068"/><polygon fill="#2FA4E7" points="436.2385,400.5613,438.2567,405.6068,440.2749,400.5613,438.2567,402.5795" style="stroke:#2FA4E7;stroke-width:0.5045497776196856;"/><line style="stroke:#2FA4E7;stroke-width:1.5136493328590568;" x1="562.1236" x2="562.1236" y1="431.4236" y2="441.5146"/><polygon fill="#2FA4E7" points="560.1054,436.4691,562.1236,441.5146,564.1418,436.4691,562.1236,438.4873" style="stroke:#2FA4E7;stroke-width:0.5045497776196856;"/><line style="stroke:#CD5C5C;stroke-width:1.5136493328590568;" x1="138.4989" x2="55.8079" y1="193.5042" y2="193.5042"/><line style="stroke:#CD5C5C;stroke-width:1.5136493328590568;" x1="55.8079" x2="55.8079" y1="193.5042" y2="209.7971"/><polygon fill="#CD5C5C" points="53.7897,204.7516,55.8079,209.7971,57.8261,204.7516,55.8079,206.7698" style="stroke:#CD5C5C;stroke-width:0.5045497776196856;"/><line style="stroke:#2FA4E7;stroke-width:1.5136493328590568;" x1="156.1582" x2="156.1582" y1="174.0367" y2="187.3023"/><polygon fill="#2FA4E7" points="154.14,182.2568,156.1582,187.3023,158.1764,182.2568,156.1582,184.275" style="stroke:#2FA4E7;stroke-width:0.5045497776196856;"/><line style="stroke:#2FA4E7;stroke-width:1.5136493328590568;" x1="762.9029" x2="762.9029" y1="295.7401" y2="311.0865"/><polygon fill="#2FA4E7" points="760.8847,306.041,762.9029,311.0865,764.9211,306.041,762.9029,308.0592" style="stroke:#2FA4E7;stroke-width:0.5045497776196856;"/><line style="stroke:#2FA4E7;stroke-width:1.5136493328590568;" x1="887.3375" x2="938.6124" y1="260.9887" y2="260.9887"/><line style="stroke:#2FA4E7;stroke-width:1.5136493328590568;" x1="938.6124" x2="938.6124" y1="260.9887" y2="313.4619"/><polygon fill="#2FA4E7" points="936.5942,308.4164,938.6124,313.4619,940.6306,308.4164,938.6124,310.4346" style="stroke:#2FA4E7;stroke-width:0.5045497776196856;"/><line style="stroke:#2FA4E7;stroke-width:1.5136493328590568;" x1="963.5876" x2="1003.0686" y1="353.1962" y2="353.1962"/><line style="stroke:#2FA4E7;stroke-width:1.5136493328590568;" x1="1003.0686" x2="1003.0686" y1="353.1962" y2="369.4891"/><polygon fill="#2FA4E7" points="1001.0504,364.4436,1003.0686,369.4891,1005.0868,364.4436,1003.0686,366.4618" style="stroke:#2FA4E7;stroke-width:0.5045497776196856;"/><line style="stroke:#2FA4E7;stroke-width:1.5136493328590568;" x1="938.6124" x2="938.6124" y1="331.9203" y2="346.9943"/><polygon fill="#2FA4E7" points="936.5942,341.9488,938.6124,346.9943,940.6306,341.9488,938.6124,343.967" style="stroke:#2FA4E7;stroke-width:0.5045497776196856;"/><line style="stroke:#2FA4E7;stroke-width:1.5136493328590568;" x1="814.1778" x2="762.9029" y1="260.9887" y2="260.9887"/><line style="stroke:#2FA4E7;stroke-width:1.5136493328590568;" x1="762.9029" x2="762.9029" y1="260.9887" y2="277.2816"/><polygon fill="#2FA4E7" points="760.8847,272.2361,762.9029,277.2816,764.9211,272.2361,762.9029,274.2543" style="stroke:#2FA4E7;stroke-width:0.5045497776196856;"/><line style="stroke:#006400;stroke-width:1.5136493328590568;" x1="795.2256" x2="850.7576" y1="238.4939" y2="238.4939"/><line style="stroke:#006400;stroke-width:1.5136493328590568;" x1="850.7576" x2="850.7576" y1="238.4939" y2="254.7868"/><polygon fill="#006400" points="848.7394,249.7413,850.7576,254.7868,852.7758,249.7413,850.7576,251.7595" style="stroke:#006400;stroke-width:0.5045497776196856;"/><line style="stroke:#006400;stroke-width:1.5136493328590568;" x1="695.3248" x2="761.4208" y1="215.999" y2="215.999"/><line style="stroke:#006400;stroke-width:1.5136493328590568;" x1="761.4208" x2="761.4208" y1="215.999" y2="232.292"/><polygon fill="#006400" points="759.4026,227.2465,761.4208,232.292,763.439,227.2465,761.4208,229.2647" style="stroke:#006400;stroke-width:0.5045497776196856;"/><line style="stroke:#006400;stroke-width:1.5136493328590568;" x1="762.9029" x2="762.9029" y1="336.9033" y2="339.9729"/><line style="stroke:#006400;stroke-width:1.5136493328590568;" x1="762.9029" x2="337.0944" y1="339.9729" y2="339.9729"/><line style="stroke:#006400;stroke-width:1.5136493328590568;" x1="337.0944" x2="337.0944" y1="339.9729" y2="348.8026"/><polygon fill="#006400" points="335.0762,343.7571,337.0944,348.8026,339.1126,343.7571,337.0944,345.7753" style="stroke:#006400;stroke-width:0.5045497776196856;"/><line style="stroke:#CD5C5C;stroke-width:1.5136493328590568;" x1="1003.0686" x2="1003.0686" y1="387.9475" y2="396.7772"/><line style="stroke:#CD5C5C;stroke-width:1.5136493328590568;" x1="1003.0686" x2="562.1236" y1="396.7772" y2="396.7772"/><line style="stroke:#CD5C5C;stroke-width:1.5136493328590568;" x1="562.1236" x2="562.1236" y1="396.7772" y2="405.6068"/><polygon fill="#CD5C5C" points="560.1054,400.5613,562.1236,405.6068,564.1418,400.5613,562.1236,402.5795" style="stroke:#CD5C5C;stroke-width:0.5045497776196856;"/><line style="stroke:#CD5C5C;stroke-width:1.5136493328590568;" x1="913.6372" x2="438.2567" y1="353.1962" y2="353.1962"/><line style="stroke:#CD5C5C;stroke-width:1.5136493328590568;" x1="438.2567" x2="438.2567" y1="353.1962" y2="369.4891"/><polygon fill="#CD5C5C" points="436.2385,364.4436,438.2567,369.4891,440.2749,364.4436,438.2567,366.4618" style="stroke:#CD5C5C;stroke-width:0.5045497776196856;"/><line style="stroke:#CD5C5C;stroke-width:1.5136493328590568;" x1="727.616" x2="256.3665" y1="238.4939" y2="238.4939"/><line style="stroke:#CD5C5C;stroke-width:1.5136493328590568;" x1="256.3665" x2="256.3665" y1="238.4939" y2="254.7868"/><polygon fill="#CD5C5C" points="254.3483,249.7413,256.3665,254.7868,258.3847,249.7413,256.3665,251.7595" style="stroke:#CD5C5C;stroke-width:0.5045497776196856;"/><line style="stroke:#CD5C5C;stroke-width:1.5136493328590568;" x1="637.3016" x2="157.2224" y1="215.999" y2="215.999"/><line style="stroke:#CD5C5C;stroke-width:1.5136493328590568;" x1="157.2224" x2="157.2224" y1="215.999" y2="232.292"/><polygon fill="#CD5C5C" points="155.2042,227.2465,157.2224,232.292,159.2406,227.2465,157.2224,229.2647" style="stroke:#CD5C5C;stroke-width:0.5045497776196856;"/><line style="stroke:#006400;stroke-width:1.5136493328590568;" x1="173.8174" x2="666.3132" y1="193.5042" y2="193.5042"/><line style="stroke:#006400;stroke-width:1.5136493328590568;" x1="666.3132" x2="666.3132" y1="193.5042" y2="209.7971"/><polygon fill="#006400" points="664.295,204.7516,666.3132,209.7971,668.3314,204.7516,666.3132,206.7698" style="stroke:#006400;stroke-width:0.5045497776196856;"/><text fill="#2FA4E7" font-family="Verdana" font-size="6.0546" lengthAdjust="spacing" textLength="30.7775" x="300.487" y="48.1195">Front End</text><text fill="#2FA4E7" font-family="Verdana" font-size="6.0546" lengthAdjust="spacing" textLength="28.7593" x="812.743" y="48.1195">Back End</text><!--SRC=[lPHDRzim38Rl-XLS0xGfYYmfUdFQ3DdGOOVTTXY6PIWKcR45ov8XqKq3vCUF_chJnacpotIo9FFZVIZo8YKgGZGU5qPQAdFpKRbyB1NfHqsRKQnbucK-MY99SJ4lANK-Wcyk19d3lLdBDAJY0wMO8oZqfK5fXI1D1k6xIxI5dyvdA-FM8cJQ5fATmLAgBF6kjF4NPvo7mJhLX28eoLRNaya4rZgcL8ZjO8awmUrNxop1lOstGWIIdlZ6w2Gbpcsp_SpkcijNFqOXTMimTH8hv_En6EGwjfNPqfGO3UUNmZf2CBYYoACglTSs0RJaDr0upPxO3eBE2wCLqn16Bj4qBXygbo8g0tfGV9s5vdmiegKCMi6ZD3gMf9sTxeJfZgkjJIW5QMEe3HOsR2p9fpecvb8RE8T2Xh1sFXPwDQmjFrq2mxOmN4aJy580hz7lWRPSAEin_ZEQrMU3MFeiIsMc8uRg2SwqhHq05w6ait7prnwGwZJcMgjK80U08Vdo9KpbDF68jWkpmxxQSfPDvlYa0uNdPArhN1pAjdQrKxlkxB2A9eoCOuyXj6eEAzfHLNqsoZOONcMr9wv7O2jIAiMlbxZYAiENchpo-9xUOxgVrJnRTlhdRMGTsk0xsjzdqCEYMmsJtK8Tmt80JOkdUxMGIrBfSJmHUSrF6UvWCjs_34Xb0O5hp7sqiETLZq7TSzfE-r0VpFPTrBLLz1CDpp-47whQxhCDv8eURhUg6cGyHEBPMuH7K5Mh6IcXUE2FoT7RwqFihgxsKRnCd7a8PLxDjHOqlnockh103YPG5ixoX4jiMUpvu4gsDhCxkEdhvLFXdj87TH7geQwSbwPxy2lkSupRCIw9C2y8RfkyPkERdkT_MWlijC7UNSzyEB6QRqLKFGhjj9Z-Jsmtq0SkBEmlL_ek8qXbW2M_yyEpvDzXLkil]--></g></svg>