<?xml version="1.0" encoding="us-ascii" standalone="no"?><svg xmlns="http://www.w3.org/2000/svg" xmlns:xlink="http://www.w3.org/1999/xlink" contentStyleType="text/css" height="1991.6667px" preserveAspectRatio="none" style="width:817px;height:1991px;background:#FFFFFF;" version="1.1" viewBox="0 0 817 1991" width="817.7083px" zoomAndPan="magnify"><defs><linearGradient id="gr4lhalpfgqoa0" x1="50%" x2="50%" y1="0%" y2="100%"><stop offset="0%" stop-color="#59B6EC"/><stop offset="100%" stop-color="#2FA4E7"/></linearGradient><linearGradient id="gr4lhalpfgqoa1" x1="50%" x2="50%" y1="0%" y2="100%"><stop offset="0%" stop-color="#FFFFFF"/><stop offset="100%" stop-color="#F8F9FA"/></linearGradient></defs><g><rect fill="none" height="48.2361" id="_title" rx="4.1667" ry="4.1667" style="stroke:#BABDBF;stroke-width:1.0416666666666667;" width="312.5" x="251.3021" y="20.8333"/><text fill="#2FA4E7" font-family="Verdana" font-size="20.8333" font-weight="bold" lengthAdjust="spacing" textLength="289.5833" x="262.7604" y="53.2369">Login Sequence Diagram</text><rect fill="#EDF0F2" height="31.25" style="stroke:#BABDBF;stroke-width:1.0416666666666667;" width="10.4167" x="33.8542" y="266.7277"/><rect fill="#EDF0F2" height="31.25" style="stroke:#BABDBF;stroke-width:1.0416666666666667;" width="10.4167" x="33.8542" y="472.286"/><rect fill="#EDF0F2" height="31.25" style="stroke:#BABDBF;stroke-width:1.0416666666666667;" width="10.4167" x="33.8542" y="598.5026"/><rect fill="#EDF0F2" height="31.25" style="stroke:#BABDBF;stroke-width:1.0416666666666667;" width="10.4167" x="33.8542" y="669.9443"/><rect fill="#EDF0F2" height="165.3666" style="stroke:#BABDBF;stroke-width:1.0416666666666667;" width="10.4167" x="204.6875" y="266.7277"/><rect fill="#EDF0F2" height="31.25" style="stroke:#BABDBF;stroke-width:1.0416666666666667;" width="10.4167" x="204.6875" y="472.286"/><rect fill="#ADD8E6" height="31.25" style="stroke:#BABDBF;stroke-width:1.0416666666666667;" width="10.4167" x="204.6875" y="598.5026"/><rect fill="#ADD8E6" height="31.25" style="stroke:#BABDBF;stroke-width:1.0416666666666667;" width="10.4167" x="204.6875" y="669.9443"/><rect fill="#ADD8E6" height="235.5082" style="stroke:#BABDBF;stroke-width:1.0416666666666667;" width="10.4167" x="204.6875" y="741.3859"/><rect fill="#ADD8E6" height="31.25" style="stroke:#BABDBF;stroke-width:1.0416666666666667;" width="10.4167" x="204.6875" y="1084.5357"/><rect fill="#ADD8E6" height="31.25" style="stroke:#BABDBF;stroke-width:1.0416666666666667;" width="10.4167" x="204.6875" y="1228.6357"/><rect fill="#ADD8E6" height="31.25" style="stroke:#BABDBF;stroke-width:1.0416666666666667;" width="10.4167" x="204.6875" y="1540.3605"/><rect fill="#ADD8E6" height="31.25" style="stroke:#BABDBF;stroke-width:1.0416666666666667;" width="10.4167" x="204.6875" y="1639.4938"/><rect fill="#ADD8E6" height="46.4417" style="stroke:#BABDBF;stroke-width:1.0416666666666667;" width="10.4167" x="204.6875" y="1799.6521"/><rect fill="#EDF0F2" height="93.925" style="stroke:#BABDBF;stroke-width:1.0416666666666667;" width="10.4167" x="563.0208" y="338.1694"/><rect fill="#E9967A" height="907.7413" style="stroke:#BABDBF;stroke-width:1.0416666666666667;" width="10.4167" x="563.0208" y="976.8941"/><rect fill="#FFE4E1" height="159.2916" rx="4.1667" ry="4.1667" style="stroke:#59B6EC;stroke-width:1.0416666666666667;" width="553.125" x="111.4583" y="825.9359"/><path d="M111.4583,917.3442 L664.5833,917.3442 L664.5833,981.0608 A4.1667,4.1667 0 0 1 660.4167,985.2275 L115.625,985.2275 A4.1667,4.1667 0 0 1 111.4583,981.0608 L111.4583,917.3442 " fill="#C9FFC9" style="stroke:none;stroke-width:1.0416666666666667;"/><rect fill="#FFE4E1" height="876.4913" rx="4.1667" ry="4.1667" style="stroke:#59B6EC;stroke-width:1.0416666666666667;" width="715.1042" x="80.2083" y="999.8108"/><path d="M80.2083,1124.1191 L795.3125,1124.1191 L795.3125,1872.1354 A4.1667,4.1667 0 0 1 791.1458,1876.3021 L84.375,1876.3021 A4.1667,4.1667 0 0 1 80.2083,1872.1354 L80.2083,1124.1191 " fill="#FFFFFF" style="stroke:none;stroke-width:1.0416666666666667;"/><rect fill="#FFC0CB" height="709.908" rx="4.1667" ry="4.1667" style="stroke:#59B6EC;stroke-width:1.0416666666666667;" width="694.2708" x="90.625" y="1159.1024"/><path d="M90.625,1268.219 L784.8958,1268.219 L784.8958,1864.8438 A4.1667,4.1667 0 0 1 780.7292,1869.0104 L94.7917,1869.0104 A4.1667,4.1667 0 0 1 90.625,1864.8438 L90.625,1268.219 " fill="#FFFFFF" style="stroke:none;stroke-width:1.0416666666666667;"/><rect fill="#FFE4E1" height="558.5164" rx="4.1667" ry="4.1667" style="stroke:#59B6EC;stroke-width:1.0416666666666667;" width="673.4375" x="101.0417" y="1303.2023"/><rect fill="#FFC0CB" height="277.1749" rx="4.1667" ry="4.1667" style="stroke:#59B6EC;stroke-width:1.0416666666666667;" width="652.6042" x="111.4583" y="1401.9023"/><path d="M111.4583,1579.9438 L764.0625,1579.9438 L764.0625,1674.9105 A4.1667,4.1667 0 0 1 759.8958,1679.0771 L115.625,1679.0771 A4.1667,4.1667 0 0 1 111.4583,1674.9105 L111.4583,1579.9438 " fill="#FFE4E1" style="stroke:none;stroke-width:1.0416666666666667;"/><path d="M101.0417,1686.3688 L774.4792,1686.3688 L774.4792,1857.5521 A4.1667,4.1667 0 0 1 770.3125,1861.7188 L105.2083,1861.7188 A4.1667,4.1667 0 0 1 101.0417,1857.5521 L101.0417,1686.3688 " fill="#C9FFC9" style="stroke:none;stroke-width:1.0416666666666667;"/><line style="stroke:#BABDBF;stroke-width:1.0416666666666667;stroke-dasharray:5.0,5.0;" x1="38.5417" x2="38.5417" y1="169.6777" y2="1894.0104"/><line style="stroke:#BABDBF;stroke-width:1.0416666666666667;stroke-dasharray:5.0,5.0;" x1="209.375" x2="209.375" y1="169.6777" y2="1894.0104"/><line style="stroke:#BABDBF;stroke-width:1.0416666666666667;stroke-dasharray:5.0,5.0;" x1="567.7083" x2="567.7083" y1="169.6777" y2="1894.0104"/><text fill="#343A40" font-family="Verdana" font-size="12.5" lengthAdjust="spacing" textLength="30.2083" x="20.8333" y="161.8449">User</text><ellipse cx="39.0625" cy="89.9028" fill="url(#gr4lhalpfgqoa0)" rx="8.3333" ry="8.3333" style="stroke:#2FA4E7;stroke-width:1.0416666666666667;"/><path d="M39.0625,98.2361 L39.0625,126.3611 M25.5208,106.5694 L52.6042,106.5694 M39.0625,126.3611 L25.5208,141.9861 M39.0625,126.3611 L52.6042,141.9861 " fill="none" style="stroke:#2FA4E7;stroke-width:1.0416666666666667;"/><text fill="#343A40" font-family="Verdana" font-size="12.5" lengthAdjust="spacing" textLength="30.2083" x="20.8333" y="1910.7442">User</text><ellipse cx="39.0625" cy="1927.9521" fill="url(#gr4lhalpfgqoa0)" rx="8.3333" ry="8.3333" style="stroke:#2FA4E7;stroke-width:1.0416666666666667;"/><path d="M39.0625,1936.2854 L39.0625,1964.4104 M25.5208,1944.6187 L52.6042,1944.6187 M39.0625,1964.4104 L25.5208,1980.0354 M39.0625,1964.4104 L52.6042,1980.0354 " fill="none" style="stroke:#2FA4E7;stroke-width:1.0416666666666667;"/><rect fill="url(#gr4lhalpfgqoa0)" height="40.1917" rx="4.1667" ry="4.1667" style="stroke:#2FA4E7;stroke-width:1.0416666666666667;" width="92.7083" x="163.5417" y="128.4444"/><text fill="#FFFFFF" font-family="Verdana" font-size="12.5" lengthAdjust="spacing" textLength="67.7083" x="176.0417" y="153.5116">Front_End</text><rect fill="url(#gr4lhalpfgqoa0)" height="40.1917" rx="4.1667" ry="4.1667" style="stroke:#2FA4E7;stroke-width:1.0416666666666667;" width="92.7083" x="163.5417" y="1892.9688"/><text fill="#FFFFFF" font-family="Verdana" font-size="12.5" lengthAdjust="spacing" textLength="67.7083" x="176.0417" y="1918.0359">Front_End</text><rect fill="url(#gr4lhalpfgqoa0)" height="40.1917" rx="4.1667" ry="4.1667" style="stroke:#2FA4E7;stroke-width:1.0416666666666667;" width="88.5417" x="523.9583" y="128.4444"/><text fill="#FFFFFF" font-family="Verdana" font-size="12.5" lengthAdjust="spacing" textLength="63.5417" x="536.4583" y="153.5116">Back_End</text><rect fill="url(#gr4lhalpfgqoa0)" height="40.1917" rx="4.1667" ry="4.1667" style="stroke:#2FA4E7;stroke-width:1.0416666666666667;" width="88.5417" x="523.9583" y="1892.9688"/><text fill="#FFFFFF" font-family="Verdana" font-size="12.5" lengthAdjust="spacing" textLength="63.5417" x="536.4583" y="1918.0359">Back_End</text><rect fill="#EDF0F2" height="31.25" style="stroke:#BABDBF;stroke-width:1.0416666666666667;" width="10.4167" x="33.8542" y="266.7277"/><rect fill="#EDF0F2" height="31.25" style="stroke:#BABDBF;stroke-width:1.0416666666666667;" width="10.4167" x="33.8542" y="472.286"/><rect fill="#EDF0F2" height="31.25" style="stroke:#BABDBF;stroke-width:1.0416666666666667;" width="10.4167" x="33.8542" y="598.5026"/><rect fill="#EDF0F2" height="31.25" style="stroke:#BABDBF;stroke-width:1.0416666666666667;" width="10.4167" x="33.8542" y="669.9443"/><rect fill="#EDF0F2" height="165.3666" style="stroke:#BABDBF;stroke-width:1.0416666666666667;" width="10.4167" x="204.6875" y="266.7277"/><rect fill="#EDF0F2" height="31.25" style="stroke:#BABDBF;stroke-width:1.0416666666666667;" width="10.4167" x="204.6875" y="472.286"/><rect fill="#ADD8E6" height="31.25" style="stroke:#BABDBF;stroke-width:1.0416666666666667;" width="10.4167" x="204.6875" y="598.5026"/><rect fill="#ADD8E6" height="31.25" style="stroke:#BABDBF;stroke-width:1.0416666666666667;" width="10.4167" x="204.6875" y="669.9443"/><rect fill="#ADD8E6" height="235.5082" style="stroke:#BABDBF;stroke-width:1.0416666666666667;" width="10.4167" x="204.6875" y="741.3859"/><rect fill="#ADD8E6" height="31.25" style="stroke:#BABDBF;stroke-width:1.0416666666666667;" width="10.4167" x="204.6875" y="1084.5357"/><rect fill="#ADD8E6" height="31.25" style="stroke:#BABDBF;stroke-width:1.0416666666666667;" width="10.4167" x="204.6875" y="1228.6357"/><rect fill="#ADD8E6" height="31.25" style="stroke:#BABDBF;stroke-width:1.0416666666666667;" width="10.4167" x="204.6875" y="1540.3605"/><rect fill="#ADD8E6" height="31.25" style="stroke:#BABDBF;stroke-width:1.0416666666666667;" width="10.4167" x="204.6875" y="1639.4938"/><rect fill="#ADD8E6" height="46.4417" style="stroke:#BABDBF;stroke-width:1.0416666666666667;" width="10.4167" x="204.6875" y="1799.6521"/><rect fill="#EDF0F2" height="93.925" style="stroke:#BABDBF;stroke-width:1.0416666666666667;" width="10.4167" x="563.0208" y="338.1694"/><rect fill="#E9967A" height="907.7413" style="stroke:#BABDBF;stroke-width:1.0416666666666667;" width="10.4167" x="563.0208" y="976.8941"/><rect fill="url(#gr4lhalpfgqoa1)" height="3.125" rx="4.1667" ry="4.1667" style="stroke:url(#gr4lhalpfgqoa1);stroke-width:1.0416666666666667;" width="795.3125" x="10.4167" y="206.4402"/><line style="stroke:#868E96;stroke-width:1.0416666666666667;" x1="10.4167" x2="805.7292" y1="206.4402" y2="206.4402"/><line style="stroke:#868E96;stroke-width:1.0416666666666667;" x1="10.4167" x2="805.7292" y1="209.5652" y2="209.5652"/><rect fill="url(#gr4lhalpfgqoa1)" height="33.9417" rx="4.1667" ry="4.1667" style="stroke:#868E96;stroke-width:2.0833333333333335;" width="167.7083" x="324.2188" y="190.5111"/><text fill="#343A40" font-family="Verdana" font-size="12.5" font-weight="bold" lengthAdjust="spacing" textLength="138.5417" x="335.6771" y="212.4532">Sample Registration</text><polygon fill="#2FA4E7" points="192.1875,262.561,202.6042,266.7277,192.1875,270.8944,196.3542,266.7277" style="stroke:#2FA4E7;stroke-width:1.0416666666666667;"/><line style="stroke:#2FA4E7;stroke-width:3.125;" x1="44.2708" x2="198.4375" y1="266.7277" y2="266.7277"/><text fill="#343A40" font-family="Verdana" font-size="12.5" font-weight="bold" lengthAdjust="spacing" textLength="9.375" x="56.7708" y="256.8115">1</text><text fill="#343A40" font-family="Verdana" font-size="12.5" lengthAdjust="spacing" textLength="54.1667" x="80.7292" y="256.8115">Register</text><polygon fill="#2FA4E7" points="550.5208,334.0027,560.9375,338.1694,550.5208,342.336,554.6875,338.1694" style="stroke:#2FA4E7;stroke-width:1.0416666666666667;"/><line style="stroke:#2FA4E7;stroke-width:3.125;" x1="215.1042" x2="556.7708" y1="338.1694" y2="338.1694"/><text fill="#343A40" font-family="Verdana" font-size="12.5" font-weight="bold" lengthAdjust="spacing" textLength="9.375" x="227.6042" y="328.2532">2</text><text fill="#343A40" font-family="Verdana" font-size="12.5" lengthAdjust="spacing" textLength="65.625" x="251.5625" y="328.2532">User Data</text><line style="stroke:#2FA4E7;stroke-width:3.125;" x1="573.4375" x2="617.1875" y1="378.361" y2="378.361"/><line style="stroke:#2FA4E7;stroke-width:3.125;" x1="617.1875" x2="617.1875" y1="378.361" y2="391.9027"/><line style="stroke:#2FA4E7;stroke-width:3.125;" x1="574.4792" x2="617.1875" y1="391.9027" y2="391.9027"/><polygon fill="#2FA4E7" points="584.8958,387.736,574.4792,391.9027,584.8958,396.0693,580.7292,391.9027" style="stroke:#2FA4E7;stroke-width:1.0416666666666667;"/><text fill="#343A40" font-family="Verdana" font-size="12.5" font-weight="bold" lengthAdjust="spacing" textLength="9.375" x="585.9375" y="368.4448">3</text><text fill="#343A40" font-family="Verdana" font-size="12.5" lengthAdjust="spacing" textLength="122.9167" x="609.8958" y="368.4448">set login_trials = 0</text><polygon fill="#2FA4E7" points="221.3542,427.9277,210.9375,432.0943,221.3542,436.261,217.1875,432.0943" style="stroke:#2FA4E7;stroke-width:1.0416666666666667;"/><line style="stroke:#2FA4E7;stroke-width:3.125;stroke-dasharray:2.0,2.0;" x1="215.1042" x2="567.1875" y1="432.0943" y2="432.0943"/><text fill="#343A40" font-family="Verdana" font-size="12.5" font-weight="bold" lengthAdjust="spacing" textLength="9.375" x="232.8125" y="422.1781">4</text><text fill="#343A40" font-family="Verdana" font-size="12.5" lengthAdjust="spacing" textLength="181.25" x="256.7708" y="422.1781">alert "Registration success"</text><polygon fill="#2FA4E7" points="192.1875,468.1193,202.6042,472.286,192.1875,476.4526,196.3542,472.286" style="stroke:#2FA4E7;stroke-width:1.0416666666666667;"/><line style="stroke:#2FA4E7;stroke-width:3.125;" x1="44.2708" x2="198.4375" y1="472.286" y2="472.286"/><text fill="#343A40" font-family="Verdana" font-size="12.5" font-weight="bold" lengthAdjust="spacing" textLength="9.375" x="56.7708" y="462.3698">5</text><text fill="#343A40" font-family="Verdana" font-size="12.5" lengthAdjust="spacing" textLength="111.4583" x="80.7292" y="462.3698">Navigate to login</text><rect fill="url(#gr4lhalpfgqoa1)" height="3.125" rx="4.1667" ry="4.1667" style="stroke:url(#gr4lhalpfgqoa1);stroke-width:1.0416666666666667;" width="795.3125" x="10.4167" y="538.2151"/><line style="stroke:#868E96;stroke-width:1.0416666666666667;" x1="10.4167" x2="805.7292" y1="538.2151" y2="538.2151"/><line style="stroke:#868E96;stroke-width:1.0416666666666667;" x1="10.4167" x2="805.7292" y1="541.3401" y2="541.3401"/><rect fill="url(#gr4lhalpfgqoa1)" height="33.9417" rx="4.1667" ry="4.1667" style="stroke:#868E96;stroke-width:2.0833333333333335;" width="66.6667" x="374.7396" y="522.286"/><text fill="#343A40" font-family="Verdana" font-size="12.5" font-weight="bold" lengthAdjust="spacing" textLength="37.5" x="386.1979" y="544.2281">Login</text><polygon fill="#2FA4E7" points="192.1875,594.3359,202.6042,598.5026,192.1875,602.6693,196.3542,598.5026" style="stroke:#2FA4E7;stroke-width:1.0416666666666667;"/><line style="stroke:#2FA4E7;stroke-width:3.125;" x1="44.2708" x2="198.4375" y1="598.5026" y2="598.5026"/><text fill="#343A40" font-family="Verdana" font-size="12.5" font-weight="bold" lengthAdjust="spacing" textLength="9.375" x="56.7708" y="588.5864">6</text><text fill="#343A40" font-family="Verdana" font-size="12.5" lengthAdjust="spacing" textLength="73.9583" x="80.7292" y="588.5864">Enter email</text><polygon fill="#2FA4E7" points="192.1875,665.7776,202.6042,669.9443,192.1875,674.1109,196.3542,669.9443" style="stroke:#2FA4E7;stroke-width:1.0416666666666667;"/><line style="stroke:#2FA4E7;stroke-width:3.125;" x1="44.2708" x2="198.4375" y1="669.9443" y2="669.9443"/><text fill="#343A40" font-family="Verdana" font-size="12.5" font-weight="bold" lengthAdjust="spacing" textLength="9.375" x="56.7708" y="660.0281">7</text><text fill="#343A40" font-family="Verdana" font-size="12.5" lengthAdjust="spacing" textLength="104.1667" x="80.7292" y="660.0281">Enter password</text><polygon fill="#2FA4E7" points="192.1875,737.2192,202.6042,741.3859,192.1875,745.5526,196.3542,741.3859" style="stroke:#2FA4E7;stroke-width:1.0416666666666667;"/><line style="stroke:#2FA4E7;stroke-width:3.125;" x1="39.0625" x2="198.4375" y1="741.3859" y2="741.3859"/><text fill="#343A40" font-family="Verdana" font-size="12.5" font-weight="bold" lengthAdjust="spacing" textLength="9.375" x="51.5625" y="731.4697">8</text><text fill="#343A40" font-family="Verdana" font-size="12.5" lengthAdjust="spacing" textLength="93.75" x="75.5208" y="731.4697">Login Request</text><line style="stroke:#2FA4E7;stroke-width:3.125;" x1="215.1042" x2="258.8542" y1="796.7692" y2="796.7692"/><line style="stroke:#2FA4E7;stroke-width:3.125;" x1="258.8542" x2="258.8542" y1="796.7692" y2="810.3109"/><line style="stroke:#2FA4E7;stroke-width:3.125;" x1="216.1458" x2="258.8542" y1="810.3109" y2="810.3109"/><polygon fill="#2FA4E7" points="226.5625,806.1442,216.1458,810.3109,226.5625,814.4775,222.3958,810.3109" style="stroke:#2FA4E7;stroke-width:1.0416666666666667;"/><text fill="#343A40" font-family="Verdana" font-size="12.5" font-weight="bold" lengthAdjust="spacing" textLength="9.375" x="227.6042" y="779.2572">9</text><text fill="#343A40" font-family="Verdana" font-size="12.5" lengthAdjust="spacing" textLength="101.0417" x="251.5625" y="771.6614">basic validation</text><text fill="#343A40" font-family="Verdana" font-size="12.5" lengthAdjust="spacing" textLength="155.2083" x="251.5625" y="786.853">email, password syntax</text><path d="M115.625,825.9359 L186.4583,825.9359 L186.4583,843.2109 L176.0417,853.6275 L111.4583,853.6275 L111.4583,830.1025 A4.1667,4.1667 0 0 1 115.625,825.9359 " fill="#E9ECEF" style="stroke:#868E96;stroke-width:1.0416666666666667;"/><rect fill="none" height="159.2916" rx="4.1667" ry="4.1667" style="stroke:#59B6EC;stroke-width:1.0416666666666667;" width="553.125" x="111.4583" y="825.9359"/><text fill="#033C73" font-family="Verdana" font-size="12.5" font-weight="bold" lengthAdjust="spacing" textLength="17.7083" x="132.2917" y="844.753">alt</text><text fill="#343A40" font-family="Verdana" font-size="12.5" font-weight="bold" lengthAdjust="spacing" textLength="96.875" x="207.2917" y="845.7947">[invalid input]</text><line style="stroke:#CD5C5C;stroke-width:3.125;stroke-dasharray:2.0,2.0;" x1="215.1042" x2="258.8542" y1="895.4692" y2="895.4692"/><line style="stroke:#CD5C5C;stroke-width:3.125;stroke-dasharray:2.0,2.0;" x1="258.8542" x2="258.8542" y1="895.4692" y2="909.0108"/><line style="stroke:#CD5C5C;stroke-width:3.125;stroke-dasharray:2.0,2.0;" x1="216.1458" x2="258.8542" y1="909.0108" y2="909.0108"/><polygon fill="#CD5C5C" points="226.5625,904.8442,216.1458,909.0108,226.5625,913.1775,222.3958,909.0108" style="stroke:#CD5C5C;stroke-width:1.0416666666666667;"/><text fill="#343A40" font-family="Verdana" font-size="12.5" font-weight="bold" lengthAdjust="spacing" textLength="18.75" x="227.6042" y="885.553">10</text><text fill="#343A40" font-family="Verdana" font-size="12.5" font-weight="bold" lengthAdjust="spacing" textLength="32.2917" x="260.9375" y="885.553">alert</text><text fill="#343A40" font-family="Verdana" font-size="12.5" lengthAdjust="spacing" textLength="95.8333" x="297.3958" y="885.553">"Invalid Input"</text><line style="stroke:#59B6EC;stroke-width:1.0416666666666667;stroke-dasharray:2.0,2.0;" x1="111.4583" x2="664.5833" y1="918.3858" y2="918.3858"/><text fill="#343A40" font-family="Verdana" font-size="12.5" font-weight="bold" lengthAdjust="spacing" textLength="84.375" x="121.875" y="936.1613">[valid input]</text><polygon fill="#2FA4E7" points="550.5208,972.7275,560.9375,976.8941,550.5208,981.0608,554.6875,976.8941" style="stroke:#2FA4E7;stroke-width:1.0416666666666667;"/><line style="stroke:#2FA4E7;stroke-width:3.125;" x1="209.8958" x2="556.7708" y1="976.8941" y2="976.8941"/><text fill="#343A40" font-family="Verdana" font-size="12.5" font-weight="bold" lengthAdjust="spacing" textLength="18.75" x="222.3958" y="966.9779">11</text><text fill="#343A40" font-family="Verdana" font-size="12.5" lengthAdjust="spacing" textLength="129.1667" x="255.7292" y="966.9779">send user login info</text><path d="M84.375,999.8108 L155.2083,999.8108 L155.2083,1017.0858 L144.7917,1027.5024 L80.2083,1027.5024 L80.2083,1003.9775 A4.1667,4.1667 0 0 1 84.375,999.8108 " fill="#E9ECEF" style="stroke:#868E96;stroke-width:1.0416666666666667;"/><rect fill="none" height="876.4913" rx="4.1667" ry="4.1667" style="stroke:#59B6EC;stroke-width:1.0416666666666667;" width="715.1042" x="80.2083" y="999.8108"/><text fill="#033C73" font-family="Verdana" font-size="12.5" font-weight="bold" lengthAdjust="spacing" textLength="17.7083" x="101.0417" y="1018.6279">alt</text><text fill="#343A40" font-family="Verdana" font-size="12.5" font-weight="bold" lengthAdjust="spacing" textLength="176.0417" x="176.0417" y="1019.6696">[user email doesn't exist]</text><polygon fill="#CD5C5C" points="226.5625,1080.3691,216.1458,1084.5357,226.5625,1088.7024,222.3958,1084.5357" style="stroke:#CD5C5C;stroke-width:1.0416666666666667;"/><line style="stroke:#CD5C5C;stroke-width:3.125;stroke-dasharray:2.0,2.0;" x1="220.3125" x2="561.9792" y1="1084.5357" y2="1084.5357"/><text fill="#343A40" font-family="Verdana" font-size="12.5" font-weight="bold" lengthAdjust="spacing" textLength="18.75" x="238.0208" y="1067.0237">12</text><text fill="#343A40" font-family="Verdana" font-size="12.5" font-weight="bold" lengthAdjust="spacing" textLength="32.2917" x="271.3542" y="1059.4279">alert</text><text fill="#343A40" font-family="Verdana" font-size="12.5" lengthAdjust="spacing" textLength="145.8333" x="307.8125" y="1059.4279">"Invalid email address</text><text fill="#343A40" font-family="Verdana" font-size="12.5" lengthAdjust="spacing" textLength="104.1667" x="271.3542" y="1074.6195">User not found"</text><line style="stroke:#59B6EC;stroke-width:1.0416666666666667;stroke-dasharray:2.0,2.0;" x1="80.2083" x2="795.3125" y1="1125.1607" y2="1125.1607"/><text fill="#343A40" font-family="Verdana" font-size="12.5" font-weight="bold" lengthAdjust="spacing" textLength="121.875" x="90.625" y="1142.9362">[user email exist]</text><path d="M94.7917,1159.1024 L165.625,1159.1024 L165.625,1176.3774 L155.2083,1186.794 L90.625,1186.794 L90.625,1163.269 A4.1667,4.1667 0 0 1 94.7917,1159.1024 " fill="#E9ECEF" style="stroke:#868E96;stroke-width:1.0416666666666667;"/><rect fill="none" height="709.908" rx="4.1667" ry="4.1667" style="stroke:#59B6EC;stroke-width:1.0416666666666667;" width="694.2708" x="90.625" y="1159.1024"/><text fill="#033C73" font-family="Verdana" font-size="12.5" font-weight="bold" lengthAdjust="spacing" textLength="17.7083" x="111.4583" y="1177.9195">alt</text><text fill="#343A40" font-family="Verdana" font-size="12.5" font-weight="bold" lengthAdjust="spacing" textLength="164.5833" x="186.4583" y="1178.9612">[user account is locked]</text><polygon fill="#CD5C5C" points="226.5625,1224.469,216.1458,1228.6357,226.5625,1232.8023,222.3958,1228.6357" style="stroke:#CD5C5C;stroke-width:1.0416666666666667;"/><line style="stroke:#CD5C5C;stroke-width:3.125;stroke-dasharray:2.0,2.0;" x1="220.3125" x2="561.9792" y1="1228.6357" y2="1228.6357"/><text fill="#343A40" font-family="Verdana" font-size="12.5" font-weight="bold" lengthAdjust="spacing" textLength="18.75" x="238.0208" y="1218.7195">13</text><text fill="#343A40" font-family="Verdana" font-size="12.5" font-weight="bold" lengthAdjust="spacing" textLength="32.2917" x="271.3542" y="1218.7195">alert</text><text fill="#343A40" font-family="Verdana" font-size="12.5" lengthAdjust="spacing" textLength="221.875" x="307.8125" y="1218.7195">"Your account is locked/disabled."</text><line style="stroke:#59B6EC;stroke-width:1.0416666666666667;stroke-dasharray:2.0,2.0;" x1="90.625" x2="784.8958" y1="1269.2607" y2="1269.2607"/><text fill="#343A40" font-family="Verdana" font-size="12.5" font-weight="bold" lengthAdjust="spacing" textLength="140.625" x="101.0417" y="1287.0361">[user account is OK]</text><path d="M105.2083,1303.2023 L176.0417,1303.2023 L176.0417,1320.4773 L165.625,1330.894 L101.0417,1330.894 L101.0417,1307.369 A4.1667,4.1667 0 0 1 105.2083,1303.2023 " fill="#E9ECEF" style="stroke:#868E96;stroke-width:1.0416666666666667;"/><rect fill="none" height="558.5164" rx="4.1667" ry="4.1667" style="stroke:#59B6EC;stroke-width:1.0416666666666667;" width="673.4375" x="101.0417" y="1303.2023"/><text fill="#033C73" font-family="Verdana" font-size="12.5" font-weight="bold" lengthAdjust="spacing" textLength="17.7083" x="121.875" y="1322.0194">alt</text><text fill="#343A40" font-family="Verdana" font-size="12.5" font-weight="bold" lengthAdjust="spacing" textLength="127.0833" x="196.875" y="1323.0611">[wrong password]</text><line style="stroke:#2FA4E7;stroke-width:3.125;" x1="573.4375" x2="617.1875" y1="1372.7356" y2="1372.7356"/><line style="stroke:#2FA4E7;stroke-width:3.125;" x1="617.1875" x2="617.1875" y1="1372.7356" y2="1386.2773"/><line style="stroke:#2FA4E7;stroke-width:3.125;" x1="574.4792" x2="617.1875" y1="1386.2773" y2="1386.2773"/><polygon fill="#2FA4E7" points="584.8958,1382.1106,574.4792,1386.2773,584.8958,1390.4439,580.7292,1386.2773" style="stroke:#2FA4E7;stroke-width:1.0416666666666667;"/><text fill="#343A40" font-family="Verdana" font-size="12.5" font-weight="bold" lengthAdjust="spacing" textLength="18.75" x="585.9375" y="1362.8194">14</text><text fill="#343A40" font-family="Verdana" font-size="12.5" font-weight="bold" lengthAdjust="spacing" textLength="98.9583" x="619.2708" y="1362.8194">login_trials++</text><path d="M115.625,1401.9023 L186.4583,1401.9023 L186.4583,1419.1772 L176.0417,1429.5939 L111.4583,1429.5939 L111.4583,1406.0689 A4.1667,4.1667 0 0 1 115.625,1401.9023 " fill="#E9ECEF" style="stroke:#868E96;stroke-width:1.0416666666666667;"/><rect fill="none" height="277.1749" rx="4.1667" ry="4.1667" style="stroke:#59B6EC;stroke-width:1.0416666666666667;" width="652.6042" x="111.4583" y="1401.9023"/><text fill="#033C73" font-family="Verdana" font-size="12.5" font-weight="bold" lengthAdjust="spacing" textLength="17.7083" x="132.2917" y="1420.7194">alt</text><text fill="#343A40" font-family="Verdana" font-size="12.5" font-weight="bold" lengthAdjust="spacing" textLength="129.1667" x="207.2917" y="1421.7611">[login_trials &gt;= 3]</text><line style="stroke:#2FA4E7;stroke-width:3.125;" x1="573.4375" x2="617.1875" y1="1471.4355" y2="1471.4355"/><line style="stroke:#2FA4E7;stroke-width:3.125;" x1="617.1875" x2="617.1875" y1="1471.4355" y2="1484.9772"/><line style="stroke:#2FA4E7;stroke-width:3.125;" x1="574.4792" x2="617.1875" y1="1484.9772" y2="1484.9772"/><polygon fill="#2FA4E7" points="584.8958,1480.8105,574.4792,1484.9772,584.8958,1489.1439,580.7292,1484.9772" style="stroke:#2FA4E7;stroke-width:1.0416666666666667;"/><text fill="#343A40" font-family="Verdana" font-size="12.5" font-weight="bold" lengthAdjust="spacing" textLength="18.75" x="585.9375" y="1461.5194">15</text><text fill="#343A40" font-family="Verdana" font-size="12.5" font-weight="bold" lengthAdjust="spacing" textLength="127.0833" x="619.2708" y="1461.5194">Lock User Account</text><polygon fill="#2FA4E7" points="226.5625,1536.1938,216.1458,1540.3605,226.5625,1544.5272,222.3958,1540.3605" style="stroke:#2FA4E7;stroke-width:1.0416666666666667;"/><line style="stroke:#2FA4E7;stroke-width:3.125;stroke-dasharray:2.0,2.0;" x1="220.3125" x2="561.9792" y1="1540.3605" y2="1540.3605"/><text fill="#343A40" font-family="Verdana" font-size="12.5" font-weight="bold" lengthAdjust="spacing" textLength="18.75" x="238.0208" y="1522.8485">16</text><text fill="#343A40" font-family="Verdana" font-size="12.5" font-weight="bold" lengthAdjust="spacing" textLength="32.2917" x="271.3542" y="1515.2527">alert</text><text fill="#343A40" font-family="Verdana" font-size="12.5" lengthAdjust="spacing" textLength="153.125" x="307.8125" y="1515.2527">"3 failed login attempts</text><text fill="#343A40" font-family="Verdana" font-size="12.5" lengthAdjust="spacing" textLength="202.0833" x="271.3542" y="1530.4443">your account has been locked"</text><line style="stroke:#59B6EC;stroke-width:1.0416666666666667;stroke-dasharray:2.0,2.0;" x1="111.4583" x2="764.0625" y1="1580.9855" y2="1580.9855"/><text fill="#343A40" font-family="Verdana" font-size="12.5" font-weight="bold" lengthAdjust="spacing" textLength="118.75" x="121.875" y="1598.761">[login_trials &lt; 3]</text><polygon fill="#2FA4E7" points="226.5625,1635.3271,216.1458,1639.4938,226.5625,1643.6605,222.3958,1639.4938" style="stroke:#2FA4E7;stroke-width:1.0416666666666667;"/><line style="stroke:#2FA4E7;stroke-width:3.125;stroke-dasharray:2.0,2.0;" x1="220.3125" x2="561.9792" y1="1639.4938" y2="1639.4938"/><text fill="#343A40" font-family="Verdana" font-size="12.5" font-weight="bold" lengthAdjust="spacing" textLength="18.75" x="238.0208" y="1629.5776">17</text><text fill="#343A40" font-family="Verdana" font-size="12.5" font-weight="bold" lengthAdjust="spacing" textLength="32.2917" x="271.3542" y="1629.5776">alert</text><text fill="#343A40" font-family="Verdana" font-size="12.5" lengthAdjust="spacing" textLength="247.9167" x="307.8125" y="1629.5776">"failed login attempt &lt;login_trials&gt;/3"</text><line style="stroke:#59B6EC;stroke-width:1.0416666666666667;stroke-dasharray:2.0,2.0;" x1="101.0417" x2="774.4792" y1="1687.4105" y2="1687.4105"/><text fill="#343A40" font-family="Verdana" font-size="12.5" font-weight="bold" lengthAdjust="spacing" textLength="104.1667" x="111.4583" y="1705.186">[password OK]</text><line style="stroke:#2FA4E7;stroke-width:3.125;" x1="573.4375" x2="617.1875" y1="1745.9188" y2="1745.9188"/><line style="stroke:#2FA4E7;stroke-width:3.125;" x1="617.1875" x2="617.1875" y1="1745.9188" y2="1759.4604"/><line style="stroke:#2FA4E7;stroke-width:3.125;" x1="574.4792" x2="617.1875" y1="1759.4604" y2="1759.4604"/><polygon fill="#2FA4E7" points="584.8958,1755.2938,574.4792,1759.4604,584.8958,1763.6271,580.7292,1759.4604" style="stroke:#2FA4E7;stroke-width:1.0416666666666667;"/><text fill="#343A40" font-family="Verdana" font-size="12.5" font-weight="bold" lengthAdjust="spacing" textLength="18.75" x="585.9375" y="1736.0026">18</text><text fill="#343A40" font-family="Verdana" font-size="12.5" lengthAdjust="spacing" textLength="20.8333" x="619.2708" y="1736.0026">set</text><text fill="#343A40" font-family="Verdana" font-size="12.5" font-weight="bold" lengthAdjust="spacing" textLength="106.25" x="644.2708" y="1736.0026">login_trials = 0</text><polygon fill="#2FA4E7" points="226.5625,1795.4854,216.1458,1799.6521,226.5625,1803.8188,222.3958,1799.6521" style="stroke:#2FA4E7;stroke-width:1.0416666666666667;"/><line style="stroke:#2FA4E7;stroke-width:3.125;stroke-dasharray:2.0,2.0;" x1="220.3125" x2="561.9792" y1="1799.6521" y2="1799.6521"/><text fill="#343A40" font-family="Verdana" font-size="12.5" font-weight="bold" lengthAdjust="spacing" textLength="18.75" x="238.0208" y="1789.7359">19</text><text fill="#343A40" font-family="Verdana" font-size="12.5" lengthAdjust="spacing" textLength="90.625" x="271.3542" y="1789.7359">Login success</text><line style="stroke:#2FA4E7;stroke-width:3.125;stroke-dasharray:2.0,2.0;" x1="215.1042" x2="258.8542" y1="1845.0521" y2="1845.0521"/><line style="stroke:#2FA4E7;stroke-width:3.125;stroke-dasharray:2.0,2.0;" x1="258.8542" x2="258.8542" y1="1845.0521" y2="1858.5938"/><line style="stroke:#2FA4E7;stroke-width:3.125;stroke-dasharray:2.0,2.0;" x1="209.8958" x2="258.8542" y1="1858.5938" y2="1858.5938"/><polygon fill="#2FA4E7" points="220.3125,1854.4271,209.8958,1858.5938,220.3125,1862.7604,216.1458,1858.5938" style="stroke:#2FA4E7;stroke-width:1.0416666666666667;"/><text fill="#343A40" font-family="Verdana" font-size="12.5" font-weight="bold" lengthAdjust="spacing" textLength="18.75" x="227.6042" y="1835.1359">20</text><text fill="#343A40" font-family="Verdana" font-size="12.5" lengthAdjust="spacing" textLength="166.6667" x="260.9375" y="1835.1359">redirect to welcome page</text><!--SRC=[dLPHJzim47xthxYr3qXXq4cy8Oh41jFGq2Q1zZ2D2Rd9aLXrxCo-KFhlPpjfuxGf5FBGflRv-_nzTpxte22gxEbaKackg2xbSQhBYSL_DQeKZpB1SyDBTd1HKw7DANpJrl8IhkI25xPW7wZ04Y55KqlaYf4WYN2ZSw7WhWM1onQ4rwHLNSxGC9wIDl3BkbTcvq9Lt0N0ZAVptEXQPL-qTFFZHI486PjEuOwNbKE-nLnOCfo4LZ2TCey0H-VmrMX53rSgEsr36Wxnn0cxoMueC6VO_xsEyuYVtLuQmC1noObtorUJRFNINs6HG7eF7iW8BYrCuLCKsjylbsW8HZrbjavJj7OKRt7D6OrroeQS-C6VHEx3I3VRUPCbNSYcJpuVJOg7Ct2bdFs09HToW176KkG5pMIDxo7VoLTnQnVQPAzG3fAyN1T3d8t-Mr_YbbwXxDLLX37ZLgJmnAN8GjhlLV3iureAsAKY_imObmJZqjN7qcYB85HOvBwhcXYu9wBuCnRA7LjbCFlRvqkIK6j90gFh5k7Q8umOG-bWnuHfeTp9ovVm0a6_qjr8xUq91UOMF6eM5Wpv79lYOxPg6yOPD_CxBakj6Fgotb0Ug89Ba6cqwe00dzqiYuxNcmnei7YM6NVUxbN8jD84ZxuBZTvJIwsNeNN5-sts6MHxJPLGysQQfwaZ8n3McPZECGj1RzJpMzS3I9DCM3wJc1sF-eRlJCcm93-p9IjY-_azXAp5TGbRE92yEvkhgE6-cIHnrpmyJ1AsNj4thjTTpwTmqejxYU766TEqz8jc_uvazzgTVf_0eqigPctTSo8iAt8Lj8mJKN0BCqJLfcEqnVHwGk9dTt9MJvEaplwUJsSRDkqXSqWadCMevvEJlgpz9UqX9nxOwb7hDXcLt-xK-qkvNs3-Mjx8_YvBcdRVNillb1krq3wuEzZ2O4h-dbwWT7_0q6dBzp0hzcdjb__u3m00]--></g></svg>