<?xml version="1.0" encoding="us-ascii" standalone="no"?><svg xmlns="http://www.w3.org/2000/svg" xmlns:xlink="http://www.w3.org/1999/xlink" contentStyleType="text/css" height="2101.0417px" preserveAspectRatio="none" style="width:1056px;height:2101px;background:#FFFFFF;" version="1.1" viewBox="0 0 1056 2101" width="1056.25px" zoomAndPan="magnify"><defs><linearGradient id="g1lj7wlvq38eez0" x1="50%" x2="50%" y1="0%" y2="100%"><stop offset="0%" stop-color="#59B6EC"/><stop offset="100%" stop-color="#2FA4E7"/></linearGradient><linearGradient id="g1lj7wlvq38eez1" x1="50%" x2="50%" y1="0%" y2="100%"><stop offset="0%" stop-color="#FFFFFF"/><stop offset="100%" stop-color="#F8F9FA"/></linearGradient></defs><g><rect fill="none" height="48.2361" id="_title" rx="4.1667" ry="4.1667" style="stroke:#BABDBF;stroke-width:1.0416666666666667;" width="312.5" x="370.5729" y="20.8333"/><text fill="#2FA4E7" font-family="Verdana" font-size="20.8333" font-weight="bold" lengthAdjust="spacing" textLength="289.5833" x="382.0313" y="53.2369">Login Sequence Diagram</text><rect fill="#EDF0F2" height="31.25" style="stroke:#BABDBF;stroke-width:1.0416666666666667;" width="10.4167" x="80.7292" y="266.7277"/><rect fill="#EDF0F2" height="31.25" style="stroke:#BABDBF;stroke-width:1.0416666666666667;" width="10.4167" x="80.7292" y="472.286"/><rect fill="#EDF0F2" height="31.25" style="stroke:#BABDBF;stroke-width:1.0416666666666667;" width="10.4167" x="80.7292" y="598.5026"/><rect fill="#EDF0F2" height="31.25" style="stroke:#BABDBF;stroke-width:1.0416666666666667;" width="10.4167" x="80.7292" y="669.9443"/><rect fill="#EDF0F2" height="31.25" style="stroke:#BABDBF;stroke-width:1.0416666666666667;" width="10.4167" x="80.7292" y="741.3859"/><rect fill="#EDF0F2" height="165.3666" style="stroke:#BABDBF;stroke-width:1.0416666666666667;" width="10.4167" x="440.1042" y="266.7277"/><rect fill="#EDF0F2" height="31.25" style="stroke:#BABDBF;stroke-width:1.0416666666666667;" width="10.4167" x="440.1042" y="472.286"/><rect fill="#ADD8E6" height="31.25" style="stroke:#BABDBF;stroke-width:1.0416666666666667;" width="10.4167" x="440.1042" y="598.5026"/><rect fill="#ADD8E6" height="31.25" style="stroke:#BABDBF;stroke-width:1.0416666666666667;" width="10.4167" x="440.1042" y="669.9443"/><rect fill="#ADD8E6" height="253.2166" style="stroke:#BABDBF;stroke-width:1.0416666666666667;" width="10.4167" x="440.1042" y="741.3859"/><rect fill="#ADD8E6" height="55.3833" style="stroke:#BABDBF;stroke-width:1.0416666666666667;" width="10.4167" x="440.1042" y="1102.2441"/><rect fill="#ADD8E6" height="40.1917" style="stroke:#BABDBF;stroke-width:1.0416666666666667;" width="10.4167" x="440.1042" y="1270.4773"/><rect fill="#ADD8E6" height="55.3833" style="stroke:#BABDBF;stroke-width:1.0416666666666667;" width="10.4167" x="440.1042" y="1575.9521"/><rect fill="#ADD8E6" height="40.1917" style="stroke:#BABDBF;stroke-width:1.0416666666666667;" width="10.4167" x="440.1042" y="1699.2188"/><rect fill="#ADD8E6" height="93.925" style="stroke:#BABDBF;stroke-width:1.0416666666666667;" width="10.4167" x="440.1042" y="1868.3187"/><rect fill="#EDF0F2" height="93.925" style="stroke:#BABDBF;stroke-width:1.0416666666666667;" width="10.4167" x="801.5625" y="338.1694"/><rect fill="#E9967A" height="998.8912" style="stroke:#BABDBF;stroke-width:1.0416666666666667;" width="10.4167" x="801.5625" y="994.6025"/><rect fill="#FFE4E1" height="145.7499" rx="4.1667" ry="4.1667" style="stroke:#59B6EC;stroke-width:1.0416666666666667;" width="851.0417" x="52.0833" y="857.1859"/><path d="M52.0833,935.0525 L903.125,935.0525 L903.125,998.7691 A4.1667,4.1667 0 0 1 898.9583,1002.9358 L56.25,1002.9358 A4.1667,4.1667 0 0 1 52.0833,998.7691 L52.0833,935.0525 " fill="#C9FFC9" style="stroke:none;stroke-width:1.0416666666666667;"/><rect fill="#FFE4E1" height="967.6412" rx="4.1667" ry="4.1667" style="stroke:#59B6EC;stroke-width:1.0416666666666667;" width="1013.0208" x="20.8333" y="1017.5191"/><path d="M20.8333,1165.9607 L1033.8542,1165.9607 L1033.8542,1980.9937 A4.1667,4.1667 0 0 1 1029.6875,1985.1603 L25,1985.1603 A4.1667,4.1667 0 0 1 20.8333,1980.9937 L20.8333,1165.9607 " fill="#FFFFFF" style="stroke:none;stroke-width:1.0416666666666667;"/><rect fill="#FFC0CB" height="776.9246" rx="4.1667" ry="4.1667" style="stroke:#59B6EC;stroke-width:1.0416666666666667;" width="992.1875" x="31.25" y="1200.944"/><path d="M31.25,1319.0023 L1023.4375,1319.0023 L1023.4375,1973.702 A4.1667,4.1667 0 0 1 1019.2708,1977.8687 L35.4167,1977.8687 A4.1667,4.1667 0 0 1 31.25,1973.702 L31.25,1319.0023 " fill="#FFFFFF" style="stroke:none;stroke-width:1.0416666666666667;"/><rect fill="#FFE4E1" height="616.5914" rx="4.1667" ry="4.1667" style="stroke:#59B6EC;stroke-width:1.0416666666666667;" width="971.3542" x="41.6667" y="1353.9856"/><rect fill="#FFC0CB" height="295.0582" rx="4.1667" ry="4.1667" style="stroke:#59B6EC;stroke-width:1.0416666666666667;" width="950.5208" x="52.0833" y="1452.6855"/><path d="M52.0833,1639.6688 L1002.6042,1639.6688 L1002.6042,1743.5771 A4.1667,4.1667 0 0 1 998.4375,1747.7437 L56.25,1747.7437 A4.1667,4.1667 0 0 1 52.0833,1743.5771 L52.0833,1639.6688 " fill="#FFE4E1" style="stroke:none;stroke-width:1.0416666666666667;"/><path d="M41.6667,1755.0354 L1013.0208,1755.0354 L1013.0208,1966.4103 A4.1667,4.1667 0 0 1 1008.8542,1970.577 L45.8333,1970.577 A4.1667,4.1667 0 0 1 41.6667,1966.4103 L41.6667,1755.0354 " fill="#C9FFC9" style="stroke:none;stroke-width:1.0416666666666667;"/><line style="stroke:#BABDBF;stroke-width:1.0416666666666667;stroke-dasharray:5.0,5.0;" x1="85.4167" x2="85.4167" y1="169.6777" y2="2002.8687"/><line style="stroke:#BABDBF;stroke-width:1.0416666666666667;stroke-dasharray:5.0,5.0;" x1="444.7917" x2="444.7917" y1="169.6777" y2="2002.8687"/><line style="stroke:#BABDBF;stroke-width:1.0416666666666667;stroke-dasharray:5.0,5.0;" x1="806.25" x2="806.25" y1="169.6777" y2="2002.8687"/><text fill="#343A40" font-family="Verdana" font-size="12.5" lengthAdjust="spacing" textLength="30.2083" x="67.7083" y="161.8449">User</text><ellipse cx="85.9375" cy="89.9028" fill="url(#g1lj7wlvq38eez0)" rx="8.3333" ry="8.3333" style="stroke:#2FA4E7;stroke-width:1.0416666666666667;"/><path d="M85.9375,98.2361 L85.9375,126.3611 M72.3958,106.5694 L99.4792,106.5694 M85.9375,126.3611 L72.3958,141.9861 M85.9375,126.3611 L99.4792,141.9861 " fill="none" style="stroke:#2FA4E7;stroke-width:1.0416666666666667;"/><text fill="#343A40" font-family="Verdana" font-size="12.5" lengthAdjust="spacing" textLength="30.2083" x="67.7083" y="2019.6025">User</text><ellipse cx="85.9375" cy="2036.8103" fill="url(#g1lj7wlvq38eez0)" rx="8.3333" ry="8.3333" style="stroke:#2FA4E7;stroke-width:1.0416666666666667;"/><path d="M85.9375,2045.1436 L85.9375,2073.2686 M72.3958,2053.477 L99.4792,2053.477 M85.9375,2073.2686 L72.3958,2088.8936 M85.9375,2073.2686 L99.4792,2088.8936 " fill="none" style="stroke:#2FA4E7;stroke-width:1.0416666666666667;"/><rect fill="url(#g1lj7wlvq38eez0)" height="40.1917" rx="4.1667" ry="4.1667" style="stroke:#2FA4E7;stroke-width:1.0416666666666667;" width="92.7083" x="398.9583" y="128.4444"/><text fill="#FFFFFF" font-family="Verdana" font-size="12.5" lengthAdjust="spacing" textLength="67.7083" x="411.4583" y="153.5116">Front_End</text><rect fill="url(#g1lj7wlvq38eez0)" height="40.1917" rx="4.1667" ry="4.1667" style="stroke:#2FA4E7;stroke-width:1.0416666666666667;" width="92.7083" x="398.9583" y="2001.827"/><text fill="#FFFFFF" font-family="Verdana" font-size="12.5" lengthAdjust="spacing" textLength="67.7083" x="411.4583" y="2026.8941">Front_End</text><rect fill="url(#g1lj7wlvq38eez0)" height="40.1917" rx="4.1667" ry="4.1667" style="stroke:#2FA4E7;stroke-width:1.0416666666666667;" width="88.5417" x="762.5" y="128.4444"/><text fill="#FFFFFF" font-family="Verdana" font-size="12.5" lengthAdjust="spacing" textLength="63.5417" x="775" y="153.5116">Back_End</text><rect fill="url(#g1lj7wlvq38eez0)" height="40.1917" rx="4.1667" ry="4.1667" style="stroke:#2FA4E7;stroke-width:1.0416666666666667;" width="88.5417" x="762.5" y="2001.827"/><text fill="#FFFFFF" font-family="Verdana" font-size="12.5" lengthAdjust="spacing" textLength="63.5417" x="775" y="2026.8941">Back_End</text><rect fill="#EDF0F2" height="31.25" style="stroke:#BABDBF;stroke-width:1.0416666666666667;" width="10.4167" x="80.7292" y="266.7277"/><rect fill="#EDF0F2" height="31.25" style="stroke:#BABDBF;stroke-width:1.0416666666666667;" width="10.4167" x="80.7292" y="472.286"/><rect fill="#EDF0F2" height="31.25" style="stroke:#BABDBF;stroke-width:1.0416666666666667;" width="10.4167" x="80.7292" y="598.5026"/><rect fill="#EDF0F2" height="31.25" style="stroke:#BABDBF;stroke-width:1.0416666666666667;" width="10.4167" x="80.7292" y="669.9443"/><rect fill="#EDF0F2" height="31.25" style="stroke:#BABDBF;stroke-width:1.0416666666666667;" width="10.4167" x="80.7292" y="741.3859"/><rect fill="#EDF0F2" height="165.3666" style="stroke:#BABDBF;stroke-width:1.0416666666666667;" width="10.4167" x="440.1042" y="266.7277"/><rect fill="#EDF0F2" height="31.25" style="stroke:#BABDBF;stroke-width:1.0416666666666667;" width="10.4167" x="440.1042" y="472.286"/><rect fill="#ADD8E6" height="31.25" style="stroke:#BABDBF;stroke-width:1.0416666666666667;" width="10.4167" x="440.1042" y="598.5026"/><rect fill="#ADD8E6" height="31.25" style="stroke:#BABDBF;stroke-width:1.0416666666666667;" width="10.4167" x="440.1042" y="669.9443"/><rect fill="#ADD8E6" height="253.2166" style="stroke:#BABDBF;stroke-width:1.0416666666666667;" width="10.4167" x="440.1042" y="741.3859"/><rect fill="#ADD8E6" height="55.3833" style="stroke:#BABDBF;stroke-width:1.0416666666666667;" width="10.4167" x="440.1042" y="1102.2441"/><rect fill="#ADD8E6" height="40.1917" style="stroke:#BABDBF;stroke-width:1.0416666666666667;" width="10.4167" x="440.1042" y="1270.4773"/><rect fill="#ADD8E6" height="55.3833" style="stroke:#BABDBF;stroke-width:1.0416666666666667;" width="10.4167" x="440.1042" y="1575.9521"/><rect fill="#ADD8E6" height="40.1917" style="stroke:#BABDBF;stroke-width:1.0416666666666667;" width="10.4167" x="440.1042" y="1699.2188"/><rect fill="#ADD8E6" height="93.925" style="stroke:#BABDBF;stroke-width:1.0416666666666667;" width="10.4167" x="440.1042" y="1868.3187"/><rect fill="#EDF0F2" height="93.925" style="stroke:#BABDBF;stroke-width:1.0416666666666667;" width="10.4167" x="801.5625" y="338.1694"/><rect fill="#E9967A" height="998.8912" style="stroke:#BABDBF;stroke-width:1.0416666666666667;" width="10.4167" x="801.5625" y="994.6025"/><rect fill="url(#g1lj7wlvq38eez1)" height="3.125" rx="4.1667" ry="4.1667" style="stroke:url(#g1lj7wlvq38eez1);stroke-width:1.0416666666666667;" width="1033.8542" x="10.4167" y="206.4402"/><line style="stroke:#868E96;stroke-width:1.0416666666666667;" x1="10.4167" x2="1044.2708" y1="206.4402" y2="206.4402"/><line style="stroke:#868E96;stroke-width:1.0416666666666667;" x1="10.4167" x2="1044.2708" y1="209.5652" y2="209.5652"/><rect fill="url(#g1lj7wlvq38eez1)" height="33.9417" rx="4.1667" ry="4.1667" style="stroke:#868E96;stroke-width:2.0833333333333335;" width="167.7083" x="443.4896" y="190.5111"/><text fill="#343A40" font-family="Verdana" font-size="12.5" font-weight="bold" lengthAdjust="spacing" textLength="138.5417" x="454.9479" y="212.4532">Sample Registration</text><polygon fill="#2FA4E7" points="427.6042,262.561,438.0208,266.7277,427.6042,270.8944,431.7708,266.7277" style="stroke:#2FA4E7;stroke-width:1.0416666666666667;"/><line style="stroke:#2FA4E7;stroke-width:3.125;" x1="91.1458" x2="433.8542" y1="266.7277" y2="266.7277"/><text fill="#343A40" font-family="Verdana" font-size="12.5" font-weight="bold" lengthAdjust="spacing" textLength="9.375" x="103.6458" y="256.8115">1</text><text fill="#343A40" font-family="Verdana" font-size="12.5" lengthAdjust="spacing" textLength="54.1667" x="127.6042" y="256.8115">Register</text><polygon fill="#2FA4E7" points="789.0625,334.0027,799.4792,338.1694,789.0625,342.336,793.2292,338.1694" style="stroke:#2FA4E7;stroke-width:1.0416666666666667;"/><line style="stroke:#2FA4E7;stroke-width:3.125;" x1="450.5208" x2="795.3125" y1="338.1694" y2="338.1694"/><text fill="#343A40" font-family="Verdana" font-size="12.5" font-weight="bold" lengthAdjust="spacing" textLength="9.375" x="463.0208" y="328.2532">2</text><text fill="#343A40" font-family="Verdana" font-size="12.5" lengthAdjust="spacing" textLength="65.625" x="486.9792" y="328.2532">User Data</text><line style="stroke:#2FA4E7;stroke-width:3.125;" x1="811.9792" x2="855.7292" y1="378.361" y2="378.361"/><line style="stroke:#2FA4E7;stroke-width:3.125;" x1="855.7292" x2="855.7292" y1="378.361" y2="391.9027"/><line style="stroke:#2FA4E7;stroke-width:3.125;" x1="813.0208" x2="855.7292" y1="391.9027" y2="391.9027"/><polygon fill="#2FA4E7" points="823.4375,387.736,813.0208,391.9027,823.4375,396.0693,819.2708,391.9027" style="stroke:#2FA4E7;stroke-width:1.0416666666666667;"/><text fill="#343A40" font-family="Verdana" font-size="12.5" font-weight="bold" lengthAdjust="spacing" textLength="9.375" x="824.4792" y="368.4448">3</text><text fill="#343A40" font-family="Verdana" font-size="12.5" lengthAdjust="spacing" textLength="122.9167" x="848.4375" y="368.4448">set login_trials = 0</text><polygon fill="#2FA4E7" points="456.7708,427.9277,446.3542,432.0943,456.7708,436.261,452.6042,432.0943" style="stroke:#2FA4E7;stroke-width:1.0416666666666667;"/><line style="stroke:#2FA4E7;stroke-width:3.125;stroke-dasharray:2.0,2.0;" x1="450.5208" x2="805.7292" y1="432.0943" y2="432.0943"/><text fill="#343A40" font-family="Verdana" font-size="12.5" font-weight="bold" lengthAdjust="spacing" textLength="9.375" x="468.2292" y="422.1781">4</text><text fill="#343A40" font-family="Verdana" font-size="12.5" lengthAdjust="spacing" textLength="181.25" x="492.1875" y="422.1781">Alert "Registration success"</text><polygon fill="#2FA4E7" points="427.6042,468.1193,438.0208,472.286,427.6042,476.4526,431.7708,472.286" style="stroke:#2FA4E7;stroke-width:1.0416666666666667;"/><line style="stroke:#2FA4E7;stroke-width:3.125;" x1="91.1458" x2="433.8542" y1="472.286" y2="472.286"/><text fill="#343A40" font-family="Verdana" font-size="12.5" font-weight="bold" lengthAdjust="spacing" textLength="9.375" x="103.6458" y="462.3698">5</text><text fill="#343A40" font-family="Verdana" font-size="12.5" lengthAdjust="spacing" textLength="111.4583" x="127.6042" y="462.3698">Navigate to login</text><rect fill="url(#g1lj7wlvq38eez1)" height="3.125" rx="4.1667" ry="4.1667" style="stroke:url(#g1lj7wlvq38eez1);stroke-width:1.0416666666666667;" width="1033.8542" x="10.4167" y="538.2151"/><line style="stroke:#868E96;stroke-width:1.0416666666666667;" x1="10.4167" x2="1044.2708" y1="538.2151" y2="538.2151"/><line style="stroke:#868E96;stroke-width:1.0416666666666667;" x1="10.4167" x2="1044.2708" y1="541.3401" y2="541.3401"/><rect fill="url(#g1lj7wlvq38eez1)" height="33.9417" rx="4.1667" ry="4.1667" style="stroke:#868E96;stroke-width:2.0833333333333335;" width="66.6667" x="494.0104" y="522.286"/><text fill="#343A40" font-family="Verdana" font-size="12.5" font-weight="bold" lengthAdjust="spacing" textLength="37.5" x="505.4688" y="544.2281">Login</text><polygon fill="#2FA4E7" points="427.6042,594.3359,438.0208,598.5026,427.6042,602.6693,431.7708,598.5026" style="stroke:#2FA4E7;stroke-width:1.0416666666666667;"/><line style="stroke:#2FA4E7;stroke-width:3.125;" x1="91.1458" x2="433.8542" y1="598.5026" y2="598.5026"/><text fill="#343A40" font-family="Verdana" font-size="12.5" font-weight="bold" lengthAdjust="spacing" textLength="9.375" x="103.6458" y="588.5864">6</text><text fill="#343A40" font-family="Verdana" font-size="12.5" lengthAdjust="spacing" textLength="73.9583" x="127.6042" y="588.5864">Enter email</text><polygon fill="#2FA4E7" points="427.6042,665.7776,438.0208,669.9443,427.6042,674.1109,431.7708,669.9443" style="stroke:#2FA4E7;stroke-width:1.0416666666666667;"/><line style="stroke:#2FA4E7;stroke-width:3.125;" x1="91.1458" x2="433.8542" y1="669.9443" y2="669.9443"/><text fill="#343A40" font-family="Verdana" font-size="12.5" font-weight="bold" lengthAdjust="spacing" textLength="9.375" x="103.6458" y="660.0281">7</text><text fill="#343A40" font-family="Verdana" font-size="12.5" lengthAdjust="spacing" textLength="104.1667" x="127.6042" y="660.0281">Enter password</text><polygon fill="#2FA4E7" points="427.6042,737.2192,438.0208,741.3859,427.6042,745.5526,431.7708,741.3859" style="stroke:#2FA4E7;stroke-width:1.0416666666666667;"/><line style="stroke:#2FA4E7;stroke-width:3.125;" x1="91.1458" x2="433.8542" y1="741.3859" y2="741.3859"/><text fill="#343A40" font-family="Verdana" font-size="12.5" font-weight="bold" lengthAdjust="spacing" textLength="9.375" x="103.6458" y="731.4697">8</text><text fill="#343A40" font-family="Verdana" font-size="12.5" lengthAdjust="spacing" textLength="93.75" x="127.6042" y="731.4697">Login Request</text><line style="stroke:#2FA4E7;stroke-width:3.125;" x1="450.5208" x2="494.2708" y1="828.0192" y2="828.0192"/><line style="stroke:#2FA4E7;stroke-width:3.125;" x1="494.2708" x2="494.2708" y1="828.0192" y2="841.5609"/><line style="stroke:#2FA4E7;stroke-width:3.125;" x1="451.5625" x2="494.2708" y1="841.5609" y2="841.5609"/><polygon fill="#2FA4E7" points="461.9792,837.3942,451.5625,841.5609,461.9792,845.7275,457.8125,841.5609" style="stroke:#2FA4E7;stroke-width:1.0416666666666667;"/><text fill="#343A40" font-family="Verdana" font-size="12.5" font-weight="bold" lengthAdjust="spacing" textLength="9.375" x="463.0208" y="810.5072">9</text><text fill="#343A40" font-family="Verdana" font-size="12.5" lengthAdjust="spacing" textLength="170.8333" x="486.9792" y="802.9114">basic client side validation</text><text fill="#343A40" font-family="Verdana" font-size="12.5" lengthAdjust="spacing" textLength="155.2083" x="486.9792" y="818.103">email, password syntax</text><path d="M56.25,857.1859 L127.0833,857.1859 L127.0833,874.4609 L116.6667,884.8775 L52.0833,884.8775 L52.0833,861.3525 A4.1667,4.1667 0 0 1 56.25,857.1859 " fill="#E9ECEF" style="stroke:#868E96;stroke-width:1.0416666666666667;"/><rect fill="none" height="145.7499" rx="4.1667" ry="4.1667" style="stroke:#59B6EC;stroke-width:1.0416666666666667;" width="851.0417" x="52.0833" y="857.1859"/><text fill="#033C73" font-family="Verdana" font-size="12.5" font-weight="bold" lengthAdjust="spacing" textLength="17.7083" x="72.9167" y="876.003">alt</text><text fill="#343A40" font-family="Verdana" font-size="12.5" font-weight="bold" lengthAdjust="spacing" textLength="96.875" x="147.9167" y="877.0447">[invalid input]</text><polygon fill="#CD5C5C" points="97.3958,922.5525,86.9792,926.7192,97.3958,930.8858,93.2292,926.7192" style="stroke:#CD5C5C;stroke-width:1.0416666666666667;"/><line style="stroke:#CD5C5C;stroke-width:3.125;stroke-dasharray:2.0,2.0;" x1="91.1458" x2="439.0625" y1="926.7192" y2="926.7192"/><text fill="#343A40" font-family="Verdana" font-size="12.5" font-weight="bold" lengthAdjust="spacing" textLength="18.75" x="108.8542" y="916.803">10</text><text fill="#343A40" font-family="Verdana" font-size="12.5" font-weight="bold" lengthAdjust="spacing" textLength="33.3333" x="142.1875" y="916.803">Alert</text><text fill="#343A40" font-family="Verdana" font-size="12.5" lengthAdjust="spacing" textLength="95.8333" x="179.6875" y="916.803">"Invalid Input"</text><line style="stroke:#59B6EC;stroke-width:1.0416666666666667;stroke-dasharray:2.0,2.0;" x1="52.0833" x2="903.125" y1="936.0942" y2="936.0942"/><text fill="#343A40" font-family="Verdana" font-size="12.5" font-weight="bold" lengthAdjust="spacing" textLength="84.375" x="62.5" y="953.8696">[valid input]</text><polygon fill="#2FA4E7" points="789.0625,990.4358,799.4792,994.6025,789.0625,998.7691,793.2292,994.6025" style="stroke:#2FA4E7;stroke-width:1.0416666666666667;"/><line style="stroke:#2FA4E7;stroke-width:3.125;" x1="445.3125" x2="795.3125" y1="994.6025" y2="994.6025"/><text fill="#343A40" font-family="Verdana" font-size="12.5" font-weight="bold" lengthAdjust="spacing" textLength="18.75" x="457.8125" y="984.6863">11</text><text fill="#343A40" font-family="Verdana" font-size="12.5" lengthAdjust="spacing" textLength="129.1667" x="491.1458" y="984.6863">send user login info</text><path d="M25,1017.5191 L95.8333,1017.5191 L95.8333,1034.7941 L85.4167,1045.2108 L20.8333,1045.2108 L20.8333,1021.6858 A4.1667,4.1667 0 0 1 25,1017.5191 " fill="#E9ECEF" style="stroke:#868E96;stroke-width:1.0416666666666667;"/><rect fill="none" height="967.6412" rx="4.1667" ry="4.1667" style="stroke:#59B6EC;stroke-width:1.0416666666666667;" width="1013.0208" x="20.8333" y="1017.5191"/><text fill="#033C73" font-family="Verdana" font-size="12.5" font-weight="bold" lengthAdjust="spacing" textLength="17.7083" x="41.6667" y="1036.3363">alt</text><text fill="#343A40" font-family="Verdana" font-size="12.5" font-weight="bold" lengthAdjust="spacing" textLength="176.0417" x="116.6667" y="1037.3779">[user email doesn't exist]</text><polygon fill="#CD5C5C" points="461.9792,1098.0774,451.5625,1102.2441,461.9792,1106.4107,457.8125,1102.2441" style="stroke:#CD5C5C;stroke-width:1.0416666666666667;"/><line style="stroke:#CD5C5C;stroke-width:3.125;stroke-dasharray:2.0,2.0;" x1="455.7292" x2="800.5208" y1="1102.2441" y2="1102.2441"/><text fill="#343A40" font-family="Verdana" font-size="12.5" font-weight="bold" lengthAdjust="spacing" textLength="18.75" x="473.4375" y="1084.7321">12</text><text fill="#343A40" font-family="Verdana" font-size="12.5" font-weight="bold" lengthAdjust="spacing" textLength="35.4167" x="506.7708" y="1077.1362">Error</text><text fill="#343A40" font-family="Verdana" font-size="12.5" lengthAdjust="spacing" textLength="145.8333" x="546.3542" y="1077.1362">"Invalid email address</text><text fill="#343A40" font-family="Verdana" font-size="12.5" lengthAdjust="spacing" textLength="104.1667" x="506.7708" y="1092.3279">User not found"</text><polygon fill="#CD5C5C" points="97.3958,1153.4607,86.9792,1157.6274,97.3958,1161.794,93.2292,1157.6274" style="stroke:#CD5C5C;stroke-width:1.0416666666666667;"/><line style="stroke:#CD5C5C;stroke-width:3.125;stroke-dasharray:2.0,2.0;" x1="91.1458" x2="444.2708" y1="1157.6274" y2="1157.6274"/><text fill="#343A40" font-family="Verdana" font-size="12.5" font-weight="bold" lengthAdjust="spacing" textLength="18.75" x="108.8542" y="1140.1154">13</text><text fill="#343A40" font-family="Verdana" font-size="12.5" font-weight="bold" lengthAdjust="spacing" textLength="33.3333" x="142.1875" y="1132.5195">Alert</text><text fill="#343A40" font-family="Verdana" font-size="12.5" lengthAdjust="spacing" textLength="145.8333" x="179.6875" y="1132.5195">"Invalid email address</text><text fill="#343A40" font-family="Verdana" font-size="12.5" lengthAdjust="spacing" textLength="104.1667" x="142.1875" y="1147.7112">User not found"</text><line style="stroke:#59B6EC;stroke-width:1.0416666666666667;stroke-dasharray:2.0,2.0;" x1="20.8333" x2="1033.8542" y1="1167.0024" y2="1167.0024"/><text fill="#343A40" font-family="Verdana" font-size="12.5" font-weight="bold" lengthAdjust="spacing" textLength="121.875" x="31.25" y="1184.7778">[user email exist]</text><path d="M35.4167,1200.944 L106.25,1200.944 L106.25,1218.219 L95.8333,1228.6357 L31.25,1228.6357 L31.25,1205.1107 A4.1667,4.1667 0 0 1 35.4167,1200.944 " fill="#E9ECEF" style="stroke:#868E96;stroke-width:1.0416666666666667;"/><rect fill="none" height="776.9246" rx="4.1667" ry="4.1667" style="stroke:#59B6EC;stroke-width:1.0416666666666667;" width="992.1875" x="31.25" y="1200.944"/><text fill="#033C73" font-family="Verdana" font-size="12.5" font-weight="bold" lengthAdjust="spacing" textLength="17.7083" x="52.0833" y="1219.7611">alt</text><text fill="#343A40" font-family="Verdana" font-size="12.5" font-weight="bold" lengthAdjust="spacing" textLength="164.5833" x="127.0833" y="1220.8028">[user account is locked]</text><polygon fill="#CD5C5C" points="461.9792,1266.3106,451.5625,1270.4773,461.9792,1274.644,457.8125,1270.4773" style="stroke:#CD5C5C;stroke-width:1.0416666666666667;"/><line style="stroke:#CD5C5C;stroke-width:3.125;stroke-dasharray:2.0,2.0;" x1="455.7292" x2="800.5208" y1="1270.4773" y2="1270.4773"/><text fill="#343A40" font-family="Verdana" font-size="12.5" font-weight="bold" lengthAdjust="spacing" textLength="18.75" x="473.4375" y="1260.5611">14</text><text fill="#343A40" font-family="Verdana" font-size="12.5" font-weight="bold" lengthAdjust="spacing" textLength="35.4167" x="506.7708" y="1260.5611">Error</text><text fill="#343A40" font-family="Verdana" font-size="12.5" lengthAdjust="spacing" textLength="221.875" x="546.3542" y="1260.5611">"Your account is locked/disabled."</text><polygon fill="#CD5C5C" points="97.3958,1306.5023,86.9792,1310.6689,97.3958,1314.8356,93.2292,1310.6689" style="stroke:#CD5C5C;stroke-width:1.0416666666666667;"/><line style="stroke:#CD5C5C;stroke-width:3.125;stroke-dasharray:2.0,2.0;" x1="91.1458" x2="444.2708" y1="1310.6689" y2="1310.6689"/><text fill="#343A40" font-family="Verdana" font-size="12.5" font-weight="bold" lengthAdjust="spacing" textLength="18.75" x="108.8542" y="1300.7528">15</text><text fill="#343A40" font-family="Verdana" font-size="12.5" font-weight="bold" lengthAdjust="spacing" textLength="33.3333" x="142.1875" y="1300.7528">Alert</text><text fill="#343A40" font-family="Verdana" font-size="12.5" lengthAdjust="spacing" textLength="221.875" x="179.6875" y="1300.7528">"Your account is locked/disabled."</text><line style="stroke:#59B6EC;stroke-width:1.0416666666666667;stroke-dasharray:2.0,2.0;" x1="31.25" x2="1023.4375" y1="1320.0439" y2="1320.0439"/><text fill="#343A40" font-family="Verdana" font-size="12.5" font-weight="bold" lengthAdjust="spacing" textLength="140.625" x="41.6667" y="1337.8194">[user account is OK]</text><path d="M45.8333,1353.9856 L116.6667,1353.9856 L116.6667,1371.2606 L106.25,1381.6772 L41.6667,1381.6772 L41.6667,1358.1523 A4.1667,4.1667 0 0 1 45.8333,1353.9856 " fill="#E9ECEF" style="stroke:#868E96;stroke-width:1.0416666666666667;"/><rect fill="none" height="616.5914" rx="4.1667" ry="4.1667" style="stroke:#59B6EC;stroke-width:1.0416666666666667;" width="971.3542" x="41.6667" y="1353.9856"/><text fill="#033C73" font-family="Verdana" font-size="12.5" font-weight="bold" lengthAdjust="spacing" textLength="17.7083" x="62.5" y="1372.8027">alt</text><text fill="#343A40" font-family="Verdana" font-size="12.5" font-weight="bold" lengthAdjust="spacing" textLength="127.0833" x="137.5" y="1373.8444">[wrong password]</text><line style="stroke:#2FA4E7;stroke-width:3.125;" x1="811.9792" x2="855.7292" y1="1423.5189" y2="1423.5189"/><line style="stroke:#2FA4E7;stroke-width:3.125;" x1="855.7292" x2="855.7292" y1="1423.5189" y2="1437.0605"/><line style="stroke:#2FA4E7;stroke-width:3.125;" x1="813.0208" x2="855.7292" y1="1437.0605" y2="1437.0605"/><polygon fill="#2FA4E7" points="823.4375,1432.8939,813.0208,1437.0605,823.4375,1441.2272,819.2708,1437.0605" style="stroke:#2FA4E7;stroke-width:1.0416666666666667;"/><text fill="#343A40" font-family="Verdana" font-size="12.5" font-weight="bold" lengthAdjust="spacing" textLength="18.75" x="824.4792" y="1413.6027">16</text><text fill="#343A40" font-family="Verdana" font-size="12.5" font-weight="bold" lengthAdjust="spacing" textLength="98.9583" x="857.8125" y="1413.6027">login_trials++</text><path d="M56.25,1452.6855 L127.0833,1452.6855 L127.0833,1469.9605 L116.6667,1480.3772 L52.0833,1480.3772 L52.0833,1456.8522 A4.1667,4.1667 0 0 1 56.25,1452.6855 " fill="#E9ECEF" style="stroke:#868E96;stroke-width:1.0416666666666667;"/><rect fill="none" height="295.0582" rx="4.1667" ry="4.1667" style="stroke:#59B6EC;stroke-width:1.0416666666666667;" width="950.5208" x="52.0833" y="1452.6855"/><text fill="#033C73" font-family="Verdana" font-size="12.5" font-weight="bold" lengthAdjust="spacing" textLength="17.7083" x="72.9167" y="1471.5027">alt</text><text fill="#343A40" font-family="Verdana" font-size="12.5" font-weight="bold" lengthAdjust="spacing" textLength="129.1667" x="147.9167" y="1472.5444">[login_trials &gt;= 3]</text><line style="stroke:#2FA4E7;stroke-width:3.125;" x1="811.9792" x2="855.7292" y1="1522.2188" y2="1522.2188"/><line style="stroke:#2FA4E7;stroke-width:3.125;" x1="855.7292" x2="855.7292" y1="1522.2188" y2="1535.7605"/><line style="stroke:#2FA4E7;stroke-width:3.125;" x1="813.0208" x2="855.7292" y1="1535.7605" y2="1535.7605"/><polygon fill="#2FA4E7" points="823.4375,1531.5938,813.0208,1535.7605,823.4375,1539.9272,819.2708,1535.7605" style="stroke:#2FA4E7;stroke-width:1.0416666666666667;"/><text fill="#343A40" font-family="Verdana" font-size="12.5" font-weight="bold" lengthAdjust="spacing" textLength="18.75" x="824.4792" y="1512.3027">17</text><text fill="#343A40" font-family="Verdana" font-size="12.5" font-weight="bold" lengthAdjust="spacing" textLength="127.0833" x="857.8125" y="1512.3027">Lock User Account</text><polygon fill="#2FA4E7" points="461.9792,1571.7855,451.5625,1575.9521,461.9792,1580.1188,457.8125,1575.9521" style="stroke:#2FA4E7;stroke-width:1.0416666666666667;"/><line style="stroke:#2FA4E7;stroke-width:3.125;stroke-dasharray:2.0,2.0;" x1="455.7292" x2="800.5208" y1="1575.9521" y2="1575.9521"/><text fill="#343A40" font-family="Verdana" font-size="12.5" font-weight="bold" lengthAdjust="spacing" textLength="18.75" x="473.4375" y="1566.036">18</text><text fill="#343A40" font-family="Verdana" font-size="12.5" font-weight="bold" lengthAdjust="spacing" textLength="35.4167" x="506.7708" y="1566.036">Error</text><text fill="#343A40" font-family="Verdana" font-size="12.5" lengthAdjust="spacing" textLength="159.375" x="546.3542" y="1566.036">"3 failed login attempts"</text><polygon fill="#CD5C5C" points="97.3958,1627.1688,86.9792,1631.3354,97.3958,1635.5021,93.2292,1631.3354" style="stroke:#CD5C5C;stroke-width:1.0416666666666667;"/><line style="stroke:#CD5C5C;stroke-width:3.125;stroke-dasharray:2.0,2.0;" x1="91.1458" x2="444.2708" y1="1631.3354" y2="1631.3354"/><text fill="#343A40" font-family="Verdana" font-size="12.5" font-weight="bold" lengthAdjust="spacing" textLength="18.75" x="108.8542" y="1613.8234">19</text><text fill="#343A40" font-family="Verdana" font-size="12.5" font-weight="bold" lengthAdjust="spacing" textLength="33.3333" x="142.1875" y="1606.2276">Alert</text><text fill="#343A40" font-family="Verdana" font-size="12.5" lengthAdjust="spacing" textLength="153.125" x="179.6875" y="1606.2276">"3 failed login attempts</text><text fill="#343A40" font-family="Verdana" font-size="12.5" lengthAdjust="spacing" textLength="202.0833" x="142.1875" y="1621.4193">your account has been locked"</text><line style="stroke:#59B6EC;stroke-width:1.0416666666666667;stroke-dasharray:2.0,2.0;" x1="52.0833" x2="1002.6042" y1="1640.7104" y2="1640.7104"/><text fill="#343A40" font-family="Verdana" font-size="12.5" font-weight="bold" lengthAdjust="spacing" textLength="118.75" x="62.5" y="1658.4859">[login_trials &lt; 3]</text><polygon fill="#2FA4E7" points="461.9792,1695.0521,451.5625,1699.2188,461.9792,1703.3854,457.8125,1699.2188" style="stroke:#2FA4E7;stroke-width:1.0416666666666667;"/><line style="stroke:#2FA4E7;stroke-width:3.125;stroke-dasharray:2.0,2.0;" x1="455.7292" x2="800.5208" y1="1699.2188" y2="1699.2188"/><text fill="#343A40" font-family="Verdana" font-size="12.5" font-weight="bold" lengthAdjust="spacing" textLength="18.75" x="473.4375" y="1689.3026">20</text><text fill="#343A40" font-family="Verdana" font-size="12.5" font-weight="bold" lengthAdjust="spacing" textLength="35.4167" x="506.7708" y="1689.3026">Error</text><text fill="#343A40" font-family="Verdana" font-size="12.5" lengthAdjust="spacing" textLength="247.9167" x="546.3542" y="1689.3026">"failed login attempt &lt;login_trials&gt;/3"</text><polygon fill="#CD5C5C" points="97.3958,1735.2437,86.9792,1739.4104,97.3958,1743.5771,93.2292,1739.4104" style="stroke:#CD5C5C;stroke-width:1.0416666666666667;"/><line style="stroke:#CD5C5C;stroke-width:3.125;stroke-dasharray:2.0,2.0;" x1="91.1458" x2="444.2708" y1="1739.4104" y2="1739.4104"/><text fill="#343A40" font-family="Verdana" font-size="12.5" font-weight="bold" lengthAdjust="spacing" textLength="18.75" x="108.8542" y="1729.4942">21</text><text fill="#343A40" font-family="Verdana" font-size="12.5" font-weight="bold" lengthAdjust="spacing" textLength="33.3333" x="142.1875" y="1729.4942">Alert</text><text fill="#343A40" font-family="Verdana" font-size="12.5" lengthAdjust="spacing" textLength="247.9167" x="179.6875" y="1729.4942">"failed login attempt &lt;login_trials&gt;/3"</text><line style="stroke:#59B6EC;stroke-width:1.0416666666666667;stroke-dasharray:2.0,2.0;" x1="41.6667" x2="1013.0208" y1="1756.0771" y2="1756.0771"/><text fill="#343A40" font-family="Verdana" font-size="12.5" font-weight="bold" lengthAdjust="spacing" textLength="104.1667" x="52.0833" y="1773.8525">[password OK]</text><line style="stroke:#2FA4E7;stroke-width:3.125;" x1="811.9792" x2="855.7292" y1="1814.5854" y2="1814.5854"/><line style="stroke:#2FA4E7;stroke-width:3.125;" x1="855.7292" x2="855.7292" y1="1814.5854" y2="1828.127"/><line style="stroke:#2FA4E7;stroke-width:3.125;" x1="813.0208" x2="855.7292" y1="1828.127" y2="1828.127"/><polygon fill="#2FA4E7" points="823.4375,1823.9604,813.0208,1828.127,823.4375,1832.2937,819.2708,1828.127" style="stroke:#2FA4E7;stroke-width:1.0416666666666667;"/><text fill="#343A40" font-family="Verdana" font-size="12.5" font-weight="bold" lengthAdjust="spacing" textLength="18.75" x="824.4792" y="1804.6692">22</text><text fill="#343A40" font-family="Verdana" font-size="12.5" lengthAdjust="spacing" textLength="20.8333" x="857.8125" y="1804.6692">set</text><text fill="#343A40" font-family="Verdana" font-size="12.5" font-weight="bold" lengthAdjust="spacing" textLength="106.25" x="882.8125" y="1804.6692">login_trials = 0</text><polygon fill="#2FA4E7" points="461.9792,1864.152,451.5625,1868.3187,461.9792,1872.4854,457.8125,1868.3187" style="stroke:#2FA4E7;stroke-width:1.0416666666666667;"/><line style="stroke:#2FA4E7;stroke-width:3.125;stroke-dasharray:2.0,2.0;" x1="455.7292" x2="800.5208" y1="1868.3187" y2="1868.3187"/><text fill="#343A40" font-family="Verdana" font-size="12.5" font-weight="bold" lengthAdjust="spacing" textLength="18.75" x="473.4375" y="1858.4025">23</text><text fill="#343A40" font-family="Verdana" font-size="12.5" lengthAdjust="spacing" textLength="90.625" x="506.7708" y="1858.4025">Login success</text><line style="stroke:#2FA4E7;stroke-width:3.125;stroke-dasharray:2.0,2.0;" x1="450.5208" x2="494.2708" y1="1908.5103" y2="1908.5103"/><line style="stroke:#2FA4E7;stroke-width:3.125;stroke-dasharray:2.0,2.0;" x1="494.2708" x2="494.2708" y1="1908.5103" y2="1922.052"/><line style="stroke:#2FA4E7;stroke-width:3.125;stroke-dasharray:2.0,2.0;" x1="451.5625" x2="494.2708" y1="1922.052" y2="1922.052"/><polygon fill="#2FA4E7" points="461.9792,1917.8853,451.5625,1922.052,461.9792,1926.2187,457.8125,1922.052" style="stroke:#2FA4E7;stroke-width:1.0416666666666667;"/><text fill="#343A40" font-family="Verdana" font-size="12.5" font-weight="bold" lengthAdjust="spacing" textLength="18.75" x="463.0208" y="1898.5942">24</text><text fill="#343A40" font-family="Verdana" font-size="12.5" lengthAdjust="spacing" textLength="166.6667" x="496.3542" y="1898.5942">redirect to welcome page</text><polygon fill="#2FA4E7" points="97.3958,1958.077,86.9792,1962.2437,97.3958,1966.4103,93.2292,1962.2437" style="stroke:#2FA4E7;stroke-width:1.0416666666666667;"/><line style="stroke:#2FA4E7;stroke-width:3.125;stroke-dasharray:2.0,2.0;" x1="91.1458" x2="444.2708" y1="1962.2437" y2="1962.2437"/><text fill="#343A40" font-family="Verdana" font-size="12.5" font-weight="bold" lengthAdjust="spacing" textLength="18.75" x="108.8542" y="1952.3275">25</text><text fill="#343A40" font-family="Verdana" font-size="12.5" lengthAdjust="spacing" textLength="134.375" x="142.1875" y="1952.3275">show welcome page</text><!--SRC=[dLPDRzim3BthLt39eO2xDWDwAve2tPfXnOeDQB73i0w5OhEs45do9Bff_lqaEudbnCv7VSY7HVAHxv6IJZAYmbwEHeNaYifSdiSw7rdyLwAAyImHF3KyPoSt9MNQNC8tRItFOIBdFBCP-q0PvWWncb8YLum4IOHxdGe5ZyiWSBiCmalIgiodQ1YFIHluPTrFPcT25TmPm9J7izJeKYLVj7Jhmtac21aRZ-6HvuMB_82fi6Gu2QrWF6O-0fnTmrUZ5JrFL7AvDAann2idR1QRLnLoWkt_QpiVyRFBfGvOOTnouetxQf6jVhGzB198py4p6S6bXJ5y2apR-Tv8D0I3LcMsZ6EqTX2ckCOCtZMLTJ7nWx-Ar9kHhjCvYfB6P9CdhqSjSRS24-Ne1yova1s8C9GYpMWgItmFU2zUmQsTQvFiWUm4sTqNNPXr_G- -nItjyT-TKAlh0eGfjoA6M0fK15Oa2AzSYgHga2TLiVjnNJJOXIB-nXYN1CFSTTB2Q8iWLENalekI6BWdWFip5CeDk3AO_7NOFjTBYAAg8QC81dTBvpllF60CfOiu98mpvSOpNS2EsErnS6zAps7LXSxXHRFAeKkCa1jlipK0C4oucJrocMl5qFV-Hj4LL4KG91gjEY70DxVAWXdSg3tWFOecncWJ4b37uabYt50-gQeTb2PuyLlLO8- -bVLL6x2DjqNu7hpk3Q1MfzenGmRgoYiYFKk5KBDwcSUn2qSWh9Cbdc5I6Ht9q6zTTaGQ9SBogSJaVD2Mi5Va8qWw3BAR8x-onLCGw-VtocJDLjDJSnSaRVQObLNt_Xz5uUv_UXf5REtHLg9rIboFuQ9bjmlXtfLTqtPJv-z0-drx1Ro05zSbc2n7anDXNf0TRCNQhs7u7A5dJmPFQX4AdN4BKqIrb7ixltx1LqyjV2DfY_kh3UeFeAuhRRWAerwFBjg97axY4GI-8uy3o0fVR6tywsCd69Z-PlNNeVP8-0lHHh_s4LuVjCiBqJl93CwbTd17gp0OaxyXpL6wgo-wsj9TtlKfQJCzx_Vef3TaTism__WF]--></g></svg>