<?xml version="1.0" encoding="us-ascii" standalone="no"?><svg xmlns="http://www.w3.org/2000/svg" xmlns:xlink="http://www.w3.org/1999/xlink" contentStyleType="text/css" height="2150px" preserveAspectRatio="none" style="width:1056px;height:2150px;background:#FFFFFF;" version="1.1" viewBox="0 0 1056 2150" width="1056.25px" zoomAndPan="magnify"><defs><linearGradient id="g17iz6hgtz3z1m0" x1="50%" x2="50%" y1="0%" y2="100%"><stop offset="0%" stop-color="#59B6EC"/><stop offset="100%" stop-color="#2FA4E7"/></linearGradient><linearGradient id="g17iz6hgtz3z1m1" x1="50%" x2="50%" y1="0%" y2="100%"><stop offset="0%" stop-color="#FFFFFF"/><stop offset="100%" stop-color="#F8F9FA"/></linearGradient></defs><g><rect fill="none" height="48.2361" id="_title" rx="4.1667" ry="4.1667" style="stroke:#BABDBF;stroke-width:1.0416666666666667;" width="312.5" x="370.5729" y="20.8333"/><text fill="#2FA4E7" font-family="Verdana" font-size="20.8333" font-weight="bold" lengthAdjust="spacing" textLength="289.5833" x="382.0313" y="53.2369">Login Sequence Diagram</text><rect fill="#EDF0F2" height="31.25" style="stroke:#BABDBF;stroke-width:1.0416666666666667;" width="10.4167" x="80.7292" y="266.7277"/><rect fill="#EDF0F2" height="40.1917" style="stroke:#BABDBF;stroke-width:1.0416666666666667;" width="10.4167" x="80.7292" y="512.4776"/><rect fill="#EDF0F2" height="31.25" style="stroke:#BABDBF;stroke-width:1.0416666666666667;" width="10.4167" x="80.7292" y="647.6359"/><rect fill="#EDF0F2" height="31.25" style="stroke:#BABDBF;stroke-width:1.0416666666666667;" width="10.4167" x="80.7292" y="719.0776"/><rect fill="#EDF0F2" height="31.25" style="stroke:#BABDBF;stroke-width:1.0416666666666667;" width="10.4167" x="80.7292" y="790.5192"/><rect fill="#EDF0F2" height="205.5583" style="stroke:#BABDBF;stroke-width:1.0416666666666667;" width="10.4167" x="440.1042" y="266.7277"/><rect fill="#EDF0F2" height="40.1917" style="stroke:#BABDBF;stroke-width:1.0416666666666667;" width="10.4167" x="440.1042" y="512.4776"/><rect fill="#ADD8E6" height="31.25" style="stroke:#BABDBF;stroke-width:1.0416666666666667;" width="10.4167" x="440.1042" y="647.6359"/><rect fill="#ADD8E6" height="31.25" style="stroke:#BABDBF;stroke-width:1.0416666666666667;" width="10.4167" x="440.1042" y="719.0776"/><rect fill="#ADD8E6" height="253.2166" style="stroke:#BABDBF;stroke-width:1.0416666666666667;" width="10.4167" x="440.1042" y="790.5192"/><rect fill="#ADD8E6" height="55.3833" style="stroke:#BABDBF;stroke-width:1.0416666666666667;" width="10.4167" x="440.1042" y="1151.3774"/><rect fill="#ADD8E6" height="40.1917" style="stroke:#BABDBF;stroke-width:1.0416666666666667;" width="10.4167" x="440.1042" y="1319.6106"/><rect fill="#ADD8E6" height="55.3833" style="stroke:#BABDBF;stroke-width:1.0416666666666667;" width="10.4167" x="440.1042" y="1625.0854"/><rect fill="#ADD8E6" height="40.1917" style="stroke:#BABDBF;stroke-width:1.0416666666666667;" width="10.4167" x="440.1042" y="1748.3521"/><rect fill="#ADD8E6" height="93.925" style="stroke:#BABDBF;stroke-width:1.0416666666666667;" width="10.4167" x="440.1042" y="1917.452"/><rect fill="#EDF0F2" height="134.1166" style="stroke:#BABDBF;stroke-width:1.0416666666666667;" width="10.4167" x="801.5625" y="338.1694"/><rect fill="#E9967A" height="998.8912" style="stroke:#BABDBF;stroke-width:1.0416666666666667;" width="10.4167" x="801.5625" y="1043.7358"/><rect fill="#FFE4E1" height="145.7499" rx="4.1667" ry="4.1667" style="stroke:#59B6EC;stroke-width:1.0416666666666667;" width="851.0417" x="52.0833" y="906.3192"/><path d="M52.0833,984.1858 L903.125,984.1858 L903.125,1047.9024 A4.1667,4.1667 0 0 1 898.9583,1052.0691 L56.25,1052.0691 A4.1667,4.1667 0 0 1 52.0833,1047.9024 L52.0833,984.1858 " fill="#C9FFC9" style="stroke:none;stroke-width:1.0416666666666667;"/><rect fill="#FFE4E1" height="967.6412" rx="4.1667" ry="4.1667" style="stroke:#59B6EC;stroke-width:1.0416666666666667;" width="1013.0208" x="20.8333" y="1066.6524"/><path d="M20.8333,1215.094 L1033.8542,1215.094 L1033.8542,2030.127 A4.1667,4.1667 0 0 1 1029.6875,2034.2936 L25,2034.2936 A4.1667,4.1667 0 0 1 20.8333,2030.127 L20.8333,1215.094 " fill="#FFFFFF" style="stroke:none;stroke-width:1.0416666666666667;"/><rect fill="#FFC0CB" height="776.9246" rx="4.1667" ry="4.1667" style="stroke:#59B6EC;stroke-width:1.0416666666666667;" width="992.1875" x="31.25" y="1250.0773"/><path d="M31.25,1368.1356 L1023.4375,1368.1356 L1023.4375,2022.8353 A4.1667,4.1667 0 0 1 1019.2708,2027.002 L35.4167,2027.002 A4.1667,4.1667 0 0 1 31.25,2022.8353 L31.25,1368.1356 " fill="#FFFFFF" style="stroke:none;stroke-width:1.0416666666666667;"/><rect fill="#FFE4E1" height="616.5914" rx="4.1667" ry="4.1667" style="stroke:#59B6EC;stroke-width:1.0416666666666667;" width="971.3542" x="41.6667" y="1403.1189"/><rect fill="#FFC0CB" height="295.0582" rx="4.1667" ry="4.1667" style="stroke:#59B6EC;stroke-width:1.0416666666666667;" width="950.5208" x="52.0833" y="1501.8188"/><path d="M52.0833,1688.8021 L1002.6042,1688.8021 L1002.6042,1792.7104 A4.1667,4.1667 0 0 1 998.4375,1796.877 L56.25,1796.877 A4.1667,4.1667 0 0 1 52.0833,1792.7104 L52.0833,1688.8021 " fill="#FFE4E1" style="stroke:none;stroke-width:1.0416666666666667;"/><path d="M41.6667,1804.1687 L1013.0208,1804.1687 L1013.0208,2015.5436 A4.1667,4.1667 0 0 1 1008.8542,2019.7103 L45.8333,2019.7103 A4.1667,4.1667 0 0 1 41.6667,2015.5436 L41.6667,1804.1687 " fill="#C9FFC9" style="stroke:none;stroke-width:1.0416666666666667;"/><line style="stroke:#BABDBF;stroke-width:1.0416666666666667;stroke-dasharray:5.0,5.0;" x1="85.4167" x2="85.4167" y1="169.6777" y2="2052.002"/><line style="stroke:#BABDBF;stroke-width:1.0416666666666667;stroke-dasharray:5.0,5.0;" x1="444.7917" x2="444.7917" y1="169.6777" y2="2052.002"/><line style="stroke:#BABDBF;stroke-width:1.0416666666666667;stroke-dasharray:5.0,5.0;" x1="806.25" x2="806.25" y1="169.6777" y2="2052.002"/><text fill="#343A40" font-family="Verdana" font-size="12.5" lengthAdjust="spacing" textLength="30.2083" x="67.7083" y="161.8449">User</text><ellipse cx="85.9375" cy="89.9028" fill="url(#g17iz6hgtz3z1m0)" rx="8.3333" ry="8.3333" style="stroke:#2FA4E7;stroke-width:1.0416666666666667;"/><path d="M85.9375,98.2361 L85.9375,126.3611 M72.3958,106.5694 L99.4792,106.5694 M85.9375,126.3611 L72.3958,141.9861 M85.9375,126.3611 L99.4792,141.9861 " fill="none" style="stroke:#2FA4E7;stroke-width:1.0416666666666667;"/><text fill="#343A40" font-family="Verdana" font-size="12.5" lengthAdjust="spacing" textLength="30.2083" x="67.7083" y="2068.7358">User</text><ellipse cx="85.9375" cy="2085.9436" fill="url(#g17iz6hgtz3z1m0)" rx="8.3333" ry="8.3333" style="stroke:#2FA4E7;stroke-width:1.0416666666666667;"/><path d="M85.9375,2094.2769 L85.9375,2122.4019 M72.3958,2102.6103 L99.4792,2102.6103 M85.9375,2122.4019 L72.3958,2138.0269 M85.9375,2122.4019 L99.4792,2138.0269 " fill="none" style="stroke:#2FA4E7;stroke-width:1.0416666666666667;"/><rect fill="url(#g17iz6hgtz3z1m0)" height="40.1917" rx="4.1667" ry="4.1667" style="stroke:#2FA4E7;stroke-width:1.0416666666666667;" width="92.7083" x="398.9583" y="128.4444"/><text fill="#FFFFFF" font-family="Verdana" font-size="12.5" lengthAdjust="spacing" textLength="67.7083" x="411.4583" y="153.5116">Front_End</text><rect fill="url(#g17iz6hgtz3z1m0)" height="40.1917" rx="4.1667" ry="4.1667" style="stroke:#2FA4E7;stroke-width:1.0416666666666667;" width="92.7083" x="398.9583" y="2050.9603"/><text fill="#FFFFFF" font-family="Verdana" font-size="12.5" lengthAdjust="spacing" textLength="67.7083" x="411.4583" y="2076.0274">Front_End</text><rect fill="url(#g17iz6hgtz3z1m0)" height="40.1917" rx="4.1667" ry="4.1667" style="stroke:#2FA4E7;stroke-width:1.0416666666666667;" width="88.5417" x="762.5" y="128.4444"/><text fill="#FFFFFF" font-family="Verdana" font-size="12.5" lengthAdjust="spacing" textLength="63.5417" x="775" y="153.5116">Back_End</text><rect fill="url(#g17iz6hgtz3z1m0)" height="40.1917" rx="4.1667" ry="4.1667" style="stroke:#2FA4E7;stroke-width:1.0416666666666667;" width="88.5417" x="762.5" y="2050.9603"/><text fill="#FFFFFF" font-family="Verdana" font-size="12.5" lengthAdjust="spacing" textLength="63.5417" x="775" y="2076.0274">Back_End</text><rect fill="#EDF0F2" height="31.25" style="stroke:#BABDBF;stroke-width:1.0416666666666667;" width="10.4167" x="80.7292" y="266.7277"/><rect fill="#EDF0F2" height="40.1917" style="stroke:#BABDBF;stroke-width:1.0416666666666667;" width="10.4167" x="80.7292" y="512.4776"/><rect fill="#EDF0F2" height="31.25" style="stroke:#BABDBF;stroke-width:1.0416666666666667;" width="10.4167" x="80.7292" y="647.6359"/><rect fill="#EDF0F2" height="31.25" style="stroke:#BABDBF;stroke-width:1.0416666666666667;" width="10.4167" x="80.7292" y="719.0776"/><rect fill="#EDF0F2" height="31.25" style="stroke:#BABDBF;stroke-width:1.0416666666666667;" width="10.4167" x="80.7292" y="790.5192"/><rect fill="#EDF0F2" height="205.5583" style="stroke:#BABDBF;stroke-width:1.0416666666666667;" width="10.4167" x="440.1042" y="266.7277"/><rect fill="#EDF0F2" height="40.1917" style="stroke:#BABDBF;stroke-width:1.0416666666666667;" width="10.4167" x="440.1042" y="512.4776"/><rect fill="#ADD8E6" height="31.25" style="stroke:#BABDBF;stroke-width:1.0416666666666667;" width="10.4167" x="440.1042" y="647.6359"/><rect fill="#ADD8E6" height="31.25" style="stroke:#BABDBF;stroke-width:1.0416666666666667;" width="10.4167" x="440.1042" y="719.0776"/><rect fill="#ADD8E6" height="253.2166" style="stroke:#BABDBF;stroke-width:1.0416666666666667;" width="10.4167" x="440.1042" y="790.5192"/><rect fill="#ADD8E6" height="55.3833" style="stroke:#BABDBF;stroke-width:1.0416666666666667;" width="10.4167" x="440.1042" y="1151.3774"/><rect fill="#ADD8E6" height="40.1917" style="stroke:#BABDBF;stroke-width:1.0416666666666667;" width="10.4167" x="440.1042" y="1319.6106"/><rect fill="#ADD8E6" height="55.3833" style="stroke:#BABDBF;stroke-width:1.0416666666666667;" width="10.4167" x="440.1042" y="1625.0854"/><rect fill="#ADD8E6" height="40.1917" style="stroke:#BABDBF;stroke-width:1.0416666666666667;" width="10.4167" x="440.1042" y="1748.3521"/><rect fill="#ADD8E6" height="93.925" style="stroke:#BABDBF;stroke-width:1.0416666666666667;" width="10.4167" x="440.1042" y="1917.452"/><rect fill="#EDF0F2" height="134.1166" style="stroke:#BABDBF;stroke-width:1.0416666666666667;" width="10.4167" x="801.5625" y="338.1694"/><rect fill="#E9967A" height="998.8912" style="stroke:#BABDBF;stroke-width:1.0416666666666667;" width="10.4167" x="801.5625" y="1043.7358"/><rect fill="url(#g17iz6hgtz3z1m1)" height="3.125" rx="4.1667" ry="4.1667" style="stroke:url(#g17iz6hgtz3z1m1);stroke-width:1.0416666666666667;" width="1033.8542" x="10.4167" y="206.4402"/><line style="stroke:#868E96;stroke-width:1.0416666666666667;" x1="10.4167" x2="1044.2708" y1="206.4402" y2="206.4402"/><line style="stroke:#868E96;stroke-width:1.0416666666666667;" x1="10.4167" x2="1044.2708" y1="209.5652" y2="209.5652"/><rect fill="url(#g17iz6hgtz3z1m1)" height="33.9417" rx="4.1667" ry="4.1667" style="stroke:#868E96;stroke-width:2.0833333333333335;" width="167.7083" x="443.4896" y="190.5111"/><text fill="#343A40" font-family="Verdana" font-size="12.5" font-weight="bold" lengthAdjust="spacing" textLength="138.5417" x="454.9479" y="212.4532">Sample Registration</text><polygon fill="#2FA4E7" points="427.6042,262.561,438.0208,266.7277,427.6042,270.8944,431.7708,266.7277" style="stroke:#2FA4E7;stroke-width:1.0416666666666667;"/><line style="stroke:#2FA4E7;stroke-width:3.125;" x1="91.1458" x2="433.8542" y1="266.7277" y2="266.7277"/><text fill="#343A40" font-family="Verdana" font-size="12.5" font-weight="bold" lengthAdjust="spacing" textLength="9.375" x="103.6458" y="256.8115">1</text><text fill="#343A40" font-family="Verdana" font-size="12.5" lengthAdjust="spacing" textLength="54.1667" x="127.6042" y="256.8115">Register</text><polygon fill="#2FA4E7" points="789.0625,334.0027,799.4792,338.1694,789.0625,342.336,793.2292,338.1694" style="stroke:#2FA4E7;stroke-width:1.0416666666666667;"/><line style="stroke:#2FA4E7;stroke-width:3.125;" x1="450.5208" x2="795.3125" y1="338.1694" y2="338.1694"/><text fill="#343A40" font-family="Verdana" font-size="12.5" font-weight="bold" lengthAdjust="spacing" textLength="9.375" x="463.0208" y="328.2532">2</text><text fill="#343A40" font-family="Verdana" font-size="12.5" lengthAdjust="spacing" textLength="65.625" x="486.9792" y="328.2532">User Data</text><line style="stroke:#2FA4E7;stroke-width:3.125;" x1="811.9792" x2="855.7292" y1="378.361" y2="378.361"/><line style="stroke:#2FA4E7;stroke-width:3.125;" x1="855.7292" x2="855.7292" y1="378.361" y2="391.9027"/><line style="stroke:#2FA4E7;stroke-width:3.125;" x1="813.0208" x2="855.7292" y1="391.9027" y2="391.9027"/><polygon fill="#2FA4E7" points="823.4375,387.736,813.0208,391.9027,823.4375,396.0693,819.2708,391.9027" style="stroke:#2FA4E7;stroke-width:1.0416666666666667;"/><text fill="#343A40" font-family="Verdana" font-size="12.5" font-weight="bold" lengthAdjust="spacing" textLength="9.375" x="824.4792" y="368.4448">3</text><text fill="#343A40" font-family="Verdana" font-size="12.5" lengthAdjust="spacing" textLength="122.9167" x="848.4375" y="368.4448">set login_trials = 0</text><polygon fill="#2FA4E7" points="461.9792,427.9277,451.5625,432.0943,461.9792,436.261,457.8125,432.0943" style="stroke:#2FA4E7;stroke-width:1.0416666666666667;"/><line style="stroke:#2FA4E7;stroke-width:3.125;stroke-dasharray:2.0,2.0;" x1="455.7292" x2="800.5208" y1="432.0943" y2="432.0943"/><text fill="#343A40" font-family="Verdana" font-size="12.5" font-weight="bold" lengthAdjust="spacing" textLength="9.375" x="473.4375" y="422.1781">4</text><text fill="#343A40" font-family="Verdana" font-size="12.5" lengthAdjust="spacing" textLength="169.7917" x="497.3958" y="422.1781">OK "Registration success"</text><polygon fill="#2FA4E7" points="97.3958,468.1193,86.9792,472.286,97.3958,476.4526,93.2292,472.286" style="stroke:#2FA4E7;stroke-width:1.0416666666666667;"/><line style="stroke:#2FA4E7;stroke-width:3.125;stroke-dasharray:2.0,2.0;" x1="91.1458" x2="444.2708" y1="472.286" y2="472.286"/><text fill="#343A40" font-family="Verdana" font-size="12.5" font-weight="bold" lengthAdjust="spacing" textLength="9.375" x="108.8542" y="462.3698">5</text><text fill="#343A40" font-family="Verdana" font-size="12.5" lengthAdjust="spacing" textLength="181.25" x="132.8125" y="462.3698">Alert "Registration success"</text><polygon fill="#2FA4E7" points="427.6042,508.311,438.0208,512.4776,427.6042,516.6443,431.7708,512.4776" style="stroke:#2FA4E7;stroke-width:1.0416666666666667;"/><line style="stroke:#2FA4E7;stroke-width:3.125;" x1="91.1458" x2="433.8542" y1="512.4776" y2="512.4776"/><text fill="#343A40" font-family="Verdana" font-size="12.5" font-weight="bold" lengthAdjust="spacing" textLength="9.375" x="103.6458" y="502.5614">6</text><text fill="#343A40" font-family="Verdana" font-size="12.5" lengthAdjust="spacing" textLength="111.4583" x="127.6042" y="502.5614">Navigate to login</text><polygon fill="#2FA4E7" points="97.3958,548.5026,86.9792,552.6693,97.3958,556.8359,93.2292,552.6693" style="stroke:#2FA4E7;stroke-width:1.0416666666666667;"/><line style="stroke:#2FA4E7;stroke-width:3.125;stroke-dasharray:2.0,2.0;" x1="91.1458" x2="444.2708" y1="552.6693" y2="552.6693"/><text fill="#343A40" font-family="Verdana" font-size="12.5" font-weight="bold" lengthAdjust="spacing" textLength="9.375" x="108.8542" y="542.7531">7</text><text fill="#343A40" font-family="Verdana" font-size="12.5" lengthAdjust="spacing" textLength="72.9167" x="132.8125" y="542.7531">Login Page</text><rect fill="url(#g17iz6hgtz3z1m1)" height="3.125" rx="4.1667" ry="4.1667" style="stroke:url(#g17iz6hgtz3z1m1);stroke-width:1.0416666666666667;" width="1033.8542" x="10.4167" y="587.3484"/><line style="stroke:#868E96;stroke-width:1.0416666666666667;" x1="10.4167" x2="1044.2708" y1="587.3484" y2="587.3484"/><line style="stroke:#868E96;stroke-width:1.0416666666666667;" x1="10.4167" x2="1044.2708" y1="590.4734" y2="590.4734"/><rect fill="url(#g17iz6hgtz3z1m1)" height="33.9417" rx="4.1667" ry="4.1667" style="stroke:#868E96;stroke-width:2.0833333333333335;" width="66.6667" x="494.0104" y="571.4193"/><text fill="#343A40" font-family="Verdana" font-size="12.5" font-weight="bold" lengthAdjust="spacing" textLength="37.5" x="505.4688" y="593.3614">Login</text><polygon fill="#2FA4E7" points="427.6042,643.4692,438.0208,647.6359,427.6042,651.8026,431.7708,647.6359" style="stroke:#2FA4E7;stroke-width:1.0416666666666667;"/><line style="stroke:#2FA4E7;stroke-width:3.125;" x1="91.1458" x2="433.8542" y1="647.6359" y2="647.6359"/><text fill="#343A40" font-family="Verdana" font-size="12.5" font-weight="bold" lengthAdjust="spacing" textLength="9.375" x="103.6458" y="637.7197">8</text><text fill="#343A40" font-family="Verdana" font-size="12.5" lengthAdjust="spacing" textLength="73.9583" x="127.6042" y="637.7197">Enter email</text><polygon fill="#2FA4E7" points="427.6042,714.9109,438.0208,719.0776,427.6042,723.2442,431.7708,719.0776" style="stroke:#2FA4E7;stroke-width:1.0416666666666667;"/><line style="stroke:#2FA4E7;stroke-width:3.125;" x1="91.1458" x2="433.8542" y1="719.0776" y2="719.0776"/><text fill="#343A40" font-family="Verdana" font-size="12.5" font-weight="bold" lengthAdjust="spacing" textLength="9.375" x="103.6458" y="709.1614">9</text><text fill="#343A40" font-family="Verdana" font-size="12.5" lengthAdjust="spacing" textLength="104.1667" x="127.6042" y="709.1614">Enter password</text><polygon fill="#2FA4E7" points="427.6042,786.3525,438.0208,790.5192,427.6042,794.6859,431.7708,790.5192" style="stroke:#2FA4E7;stroke-width:1.0416666666666667;"/><line style="stroke:#2FA4E7;stroke-width:3.125;" x1="91.1458" x2="433.8542" y1="790.5192" y2="790.5192"/><text fill="#343A40" font-family="Verdana" font-size="12.5" font-weight="bold" lengthAdjust="spacing" textLength="18.75" x="103.6458" y="780.603">10</text><text fill="#343A40" font-family="Verdana" font-size="12.5" lengthAdjust="spacing" textLength="93.75" x="136.9792" y="780.603">Login Request</text><line style="stroke:#2FA4E7;stroke-width:3.125;" x1="450.5208" x2="494.2708" y1="877.1525" y2="877.1525"/><line style="stroke:#2FA4E7;stroke-width:3.125;" x1="494.2708" x2="494.2708" y1="877.1525" y2="890.6942"/><line style="stroke:#2FA4E7;stroke-width:3.125;" x1="451.5625" x2="494.2708" y1="890.6942" y2="890.6942"/><polygon fill="#2FA4E7" points="461.9792,886.5275,451.5625,890.6942,461.9792,894.8608,457.8125,890.6942" style="stroke:#2FA4E7;stroke-width:1.0416666666666667;"/><text fill="#343A40" font-family="Verdana" font-size="12.5" font-weight="bold" lengthAdjust="spacing" textLength="18.75" x="463.0208" y="859.6405">11</text><text fill="#343A40" font-family="Verdana" font-size="12.5" lengthAdjust="spacing" textLength="170.8333" x="496.3542" y="852.0447">basic client side validation</text><text fill="#343A40" font-family="Verdana" font-size="12.5" lengthAdjust="spacing" textLength="155.2083" x="496.3542" y="867.2363">email, password syntax</text><path d="M56.25,906.3192 L127.0833,906.3192 L127.0833,923.5942 L116.6667,934.0108 L52.0833,934.0108 L52.0833,910.4858 A4.1667,4.1667 0 0 1 56.25,906.3192 " fill="#E9ECEF" style="stroke:#868E96;stroke-width:1.0416666666666667;"/><rect fill="none" height="145.7499" rx="4.1667" ry="4.1667" style="stroke:#59B6EC;stroke-width:1.0416666666666667;" width="851.0417" x="52.0833" y="906.3192"/><text fill="#033C73" font-family="Verdana" font-size="12.5" font-weight="bold" lengthAdjust="spacing" textLength="17.7083" x="72.9167" y="925.1363">alt</text><text fill="#343A40" font-family="Verdana" font-size="12.5" font-weight="bold" lengthAdjust="spacing" textLength="96.875" x="147.9167" y="926.178">[invalid input]</text><polygon fill="#CD5C5C" points="97.3958,971.6858,86.9792,975.8525,97.3958,980.0191,93.2292,975.8525" style="stroke:#CD5C5C;stroke-width:1.0416666666666667;"/><line style="stroke:#CD5C5C;stroke-width:3.125;stroke-dasharray:2.0,2.0;" x1="91.1458" x2="439.0625" y1="975.8525" y2="975.8525"/><text fill="#343A40" font-family="Verdana" font-size="12.5" font-weight="bold" lengthAdjust="spacing" textLength="18.75" x="108.8542" y="965.9363">12</text><text fill="#343A40" font-family="Verdana" font-size="12.5" font-weight="bold" lengthAdjust="spacing" textLength="33.3333" x="142.1875" y="965.9363">Alert</text><text fill="#343A40" font-family="Verdana" font-size="12.5" lengthAdjust="spacing" textLength="95.8333" x="179.6875" y="965.9363">"Invalid Input"</text><line style="stroke:#59B6EC;stroke-width:1.0416666666666667;stroke-dasharray:2.0,2.0;" x1="52.0833" x2="903.125" y1="985.2275" y2="985.2275"/><text fill="#343A40" font-family="Verdana" font-size="12.5" font-weight="bold" lengthAdjust="spacing" textLength="84.375" x="62.5" y="1003.0029">[valid input]</text><polygon fill="#2FA4E7" points="789.0625,1039.5691,799.4792,1043.7358,789.0625,1047.9024,793.2292,1043.7358" style="stroke:#2FA4E7;stroke-width:1.0416666666666667;"/><line style="stroke:#2FA4E7;stroke-width:3.125;" x1="445.3125" x2="795.3125" y1="1043.7358" y2="1043.7358"/><text fill="#343A40" font-family="Verdana" font-size="12.5" font-weight="bold" lengthAdjust="spacing" textLength="18.75" x="457.8125" y="1033.8196">13</text><text fill="#343A40" font-family="Verdana" font-size="12.5" lengthAdjust="spacing" textLength="129.1667" x="491.1458" y="1033.8196">send user login info</text><path d="M25,1066.6524 L95.8333,1066.6524 L95.8333,1083.9274 L85.4167,1094.3441 L20.8333,1094.3441 L20.8333,1070.8191 A4.1667,4.1667 0 0 1 25,1066.6524 " fill="#E9ECEF" style="stroke:#868E96;stroke-width:1.0416666666666667;"/><rect fill="none" height="967.6412" rx="4.1667" ry="4.1667" style="stroke:#59B6EC;stroke-width:1.0416666666666667;" width="1013.0208" x="20.8333" y="1066.6524"/><text fill="#033C73" font-family="Verdana" font-size="12.5" font-weight="bold" lengthAdjust="spacing" textLength="17.7083" x="41.6667" y="1085.4696">alt</text><text fill="#343A40" font-family="Verdana" font-size="12.5" font-weight="bold" lengthAdjust="spacing" textLength="176.0417" x="116.6667" y="1086.5112">[user email doesn't exist]</text><polygon fill="#CD5C5C" points="461.9792,1147.2107,451.5625,1151.3774,461.9792,1155.544,457.8125,1151.3774" style="stroke:#CD5C5C;stroke-width:1.0416666666666667;"/><line style="stroke:#CD5C5C;stroke-width:3.125;stroke-dasharray:2.0,2.0;" x1="455.7292" x2="800.5208" y1="1151.3774" y2="1151.3774"/><text fill="#343A40" font-family="Verdana" font-size="12.5" font-weight="bold" lengthAdjust="spacing" textLength="18.75" x="473.4375" y="1133.8654">14</text><text fill="#343A40" font-family="Verdana" font-size="12.5" font-weight="bold" lengthAdjust="spacing" textLength="35.4167" x="506.7708" y="1126.2695">Error</text><text fill="#343A40" font-family="Verdana" font-size="12.5" lengthAdjust="spacing" textLength="145.8333" x="546.3542" y="1126.2695">"Invalid email address</text><text fill="#343A40" font-family="Verdana" font-size="12.5" lengthAdjust="spacing" textLength="104.1667" x="506.7708" y="1141.4612">User not found"</text><polygon fill="#CD5C5C" points="97.3958,1202.594,86.9792,1206.7607,97.3958,1210.9273,93.2292,1206.7607" style="stroke:#CD5C5C;stroke-width:1.0416666666666667;"/><line style="stroke:#CD5C5C;stroke-width:3.125;stroke-dasharray:2.0,2.0;" x1="91.1458" x2="444.2708" y1="1206.7607" y2="1206.7607"/><text fill="#343A40" font-family="Verdana" font-size="12.5" font-weight="bold" lengthAdjust="spacing" textLength="18.75" x="108.8542" y="1189.2487">15</text><text fill="#343A40" font-family="Verdana" font-size="12.5" font-weight="bold" lengthAdjust="spacing" textLength="33.3333" x="142.1875" y="1181.6528">Alert</text><text fill="#343A40" font-family="Verdana" font-size="12.5" lengthAdjust="spacing" textLength="145.8333" x="179.6875" y="1181.6528">"Invalid email address</text><text fill="#343A40" font-family="Verdana" font-size="12.5" lengthAdjust="spacing" textLength="104.1667" x="142.1875" y="1196.8445">User not found"</text><line style="stroke:#59B6EC;stroke-width:1.0416666666666667;stroke-dasharray:2.0,2.0;" x1="20.8333" x2="1033.8542" y1="1216.1357" y2="1216.1357"/><text fill="#343A40" font-family="Verdana" font-size="12.5" font-weight="bold" lengthAdjust="spacing" textLength="121.875" x="31.25" y="1233.9111">[user email exist]</text><path d="M35.4167,1250.0773 L106.25,1250.0773 L106.25,1267.3523 L95.8333,1277.769 L31.25,1277.769 L31.25,1254.244 A4.1667,4.1667 0 0 1 35.4167,1250.0773 " fill="#E9ECEF" style="stroke:#868E96;stroke-width:1.0416666666666667;"/><rect fill="none" height="776.9246" rx="4.1667" ry="4.1667" style="stroke:#59B6EC;stroke-width:1.0416666666666667;" width="992.1875" x="31.25" y="1250.0773"/><text fill="#033C73" font-family="Verdana" font-size="12.5" font-weight="bold" lengthAdjust="spacing" textLength="17.7083" x="52.0833" y="1268.8944">alt</text><text fill="#343A40" font-family="Verdana" font-size="12.5" font-weight="bold" lengthAdjust="spacing" textLength="164.5833" x="127.0833" y="1269.9361">[user account is locked]</text><polygon fill="#CD5C5C" points="461.9792,1315.4439,451.5625,1319.6106,461.9792,1323.7773,457.8125,1319.6106" style="stroke:#CD5C5C;stroke-width:1.0416666666666667;"/><line style="stroke:#CD5C5C;stroke-width:3.125;stroke-dasharray:2.0,2.0;" x1="455.7292" x2="800.5208" y1="1319.6106" y2="1319.6106"/><text fill="#343A40" font-family="Verdana" font-size="12.5" font-weight="bold" lengthAdjust="spacing" textLength="18.75" x="473.4375" y="1309.6944">16</text><text fill="#343A40" font-family="Verdana" font-size="12.5" font-weight="bold" lengthAdjust="spacing" textLength="35.4167" x="506.7708" y="1309.6944">Error</text><text fill="#343A40" font-family="Verdana" font-size="12.5" lengthAdjust="spacing" textLength="221.875" x="546.3542" y="1309.6944">"Your account is locked/disabled."</text><polygon fill="#CD5C5C" points="97.3958,1355.6356,86.9792,1359.8022,97.3958,1363.9689,93.2292,1359.8022" style="stroke:#CD5C5C;stroke-width:1.0416666666666667;"/><line style="stroke:#CD5C5C;stroke-width:3.125;stroke-dasharray:2.0,2.0;" x1="91.1458" x2="444.2708" y1="1359.8022" y2="1359.8022"/><text fill="#343A40" font-family="Verdana" font-size="12.5" font-weight="bold" lengthAdjust="spacing" textLength="18.75" x="108.8542" y="1349.8861">17</text><text fill="#343A40" font-family="Verdana" font-size="12.5" font-weight="bold" lengthAdjust="spacing" textLength="33.3333" x="142.1875" y="1349.8861">Alert</text><text fill="#343A40" font-family="Verdana" font-size="12.5" lengthAdjust="spacing" textLength="221.875" x="179.6875" y="1349.8861">"Your account is locked/disabled."</text><line style="stroke:#59B6EC;stroke-width:1.0416666666666667;stroke-dasharray:2.0,2.0;" x1="31.25" x2="1023.4375" y1="1369.1772" y2="1369.1772"/><text fill="#343A40" font-family="Verdana" font-size="12.5" font-weight="bold" lengthAdjust="spacing" textLength="140.625" x="41.6667" y="1386.9527">[user account is OK]</text><path d="M45.8333,1403.1189 L116.6667,1403.1189 L116.6667,1420.3939 L106.25,1430.8105 L41.6667,1430.8105 L41.6667,1407.2856 A4.1667,4.1667 0 0 1 45.8333,1403.1189 " fill="#E9ECEF" style="stroke:#868E96;stroke-width:1.0416666666666667;"/><rect fill="none" height="616.5914" rx="4.1667" ry="4.1667" style="stroke:#59B6EC;stroke-width:1.0416666666666667;" width="971.3542" x="41.6667" y="1403.1189"/><text fill="#033C73" font-family="Verdana" font-size="12.5" font-weight="bold" lengthAdjust="spacing" textLength="17.7083" x="62.5" y="1421.936">alt</text><text fill="#343A40" font-family="Verdana" font-size="12.5" font-weight="bold" lengthAdjust="spacing" textLength="127.0833" x="137.5" y="1422.9777">[wrong password]</text><line style="stroke:#2FA4E7;stroke-width:3.125;" x1="811.9792" x2="855.7292" y1="1472.6522" y2="1472.6522"/><line style="stroke:#2FA4E7;stroke-width:3.125;" x1="855.7292" x2="855.7292" y1="1472.6522" y2="1486.1938"/><line style="stroke:#2FA4E7;stroke-width:3.125;" x1="813.0208" x2="855.7292" y1="1486.1938" y2="1486.1938"/><polygon fill="#2FA4E7" points="823.4375,1482.0272,813.0208,1486.1938,823.4375,1490.3605,819.2708,1486.1938" style="stroke:#2FA4E7;stroke-width:1.0416666666666667;"/><text fill="#343A40" font-family="Verdana" font-size="12.5" font-weight="bold" lengthAdjust="spacing" textLength="18.75" x="824.4792" y="1462.736">18</text><text fill="#343A40" font-family="Verdana" font-size="12.5" font-weight="bold" lengthAdjust="spacing" textLength="98.9583" x="857.8125" y="1462.736">login_trials++</text><path d="M56.25,1501.8188 L127.0833,1501.8188 L127.0833,1519.0938 L116.6667,1529.5105 L52.0833,1529.5105 L52.0833,1505.9855 A4.1667,4.1667 0 0 1 56.25,1501.8188 " fill="#E9ECEF" style="stroke:#868E96;stroke-width:1.0416666666666667;"/><rect fill="none" height="295.0582" rx="4.1667" ry="4.1667" style="stroke:#59B6EC;stroke-width:1.0416666666666667;" width="950.5208" x="52.0833" y="1501.8188"/><text fill="#033C73" font-family="Verdana" font-size="12.5" font-weight="bold" lengthAdjust="spacing" textLength="17.7083" x="72.9167" y="1520.636">alt</text><text fill="#343A40" font-family="Verdana" font-size="12.5" font-weight="bold" lengthAdjust="spacing" textLength="129.1667" x="147.9167" y="1521.6777">[login_trials &gt;= 3]</text><line style="stroke:#2FA4E7;stroke-width:3.125;" x1="811.9792" x2="855.7292" y1="1571.3521" y2="1571.3521"/><line style="stroke:#2FA4E7;stroke-width:3.125;" x1="855.7292" x2="855.7292" y1="1571.3521" y2="1584.8938"/><line style="stroke:#2FA4E7;stroke-width:3.125;" x1="813.0208" x2="855.7292" y1="1584.8938" y2="1584.8938"/><polygon fill="#2FA4E7" points="823.4375,1580.7271,813.0208,1584.8938,823.4375,1589.0605,819.2708,1584.8938" style="stroke:#2FA4E7;stroke-width:1.0416666666666667;"/><text fill="#343A40" font-family="Verdana" font-size="12.5" font-weight="bold" lengthAdjust="spacing" textLength="18.75" x="824.4792" y="1561.436">19</text><text fill="#343A40" font-family="Verdana" font-size="12.5" font-weight="bold" lengthAdjust="spacing" textLength="127.0833" x="857.8125" y="1561.436">Lock User Account</text><polygon fill="#2FA4E7" points="461.9792,1620.9188,451.5625,1625.0854,461.9792,1629.2521,457.8125,1625.0854" style="stroke:#2FA4E7;stroke-width:1.0416666666666667;"/><line style="stroke:#2FA4E7;stroke-width:3.125;stroke-dasharray:2.0,2.0;" x1="455.7292" x2="800.5208" y1="1625.0854" y2="1625.0854"/><text fill="#343A40" font-family="Verdana" font-size="12.5" font-weight="bold" lengthAdjust="spacing" textLength="18.75" x="473.4375" y="1615.1693">20</text><text fill="#343A40" font-family="Verdana" font-size="12.5" font-weight="bold" lengthAdjust="spacing" textLength="35.4167" x="506.7708" y="1615.1693">Error</text><text fill="#343A40" font-family="Verdana" font-size="12.5" lengthAdjust="spacing" textLength="159.375" x="546.3542" y="1615.1693">"3 failed login attempts"</text><polygon fill="#CD5C5C" points="97.3958,1676.3021,86.9792,1680.4688,97.3958,1684.6354,93.2292,1680.4688" style="stroke:#CD5C5C;stroke-width:1.0416666666666667;"/><line style="stroke:#CD5C5C;stroke-width:3.125;stroke-dasharray:2.0,2.0;" x1="91.1458" x2="444.2708" y1="1680.4688" y2="1680.4688"/><text fill="#343A40" font-family="Verdana" font-size="12.5" font-weight="bold" lengthAdjust="spacing" textLength="18.75" x="108.8542" y="1662.9567">21</text><text fill="#343A40" font-family="Verdana" font-size="12.5" font-weight="bold" lengthAdjust="spacing" textLength="33.3333" x="142.1875" y="1655.3609">Alert</text><text fill="#343A40" font-family="Verdana" font-size="12.5" lengthAdjust="spacing" textLength="153.125" x="179.6875" y="1655.3609">"3 failed login attempts</text><text fill="#343A40" font-family="Verdana" font-size="12.5" lengthAdjust="spacing" textLength="202.0833" x="142.1875" y="1670.5526">your account has been locked"</text><line style="stroke:#59B6EC;stroke-width:1.0416666666666667;stroke-dasharray:2.0,2.0;" x1="52.0833" x2="1002.6042" y1="1689.8438" y2="1689.8438"/><text fill="#343A40" font-family="Verdana" font-size="12.5" font-weight="bold" lengthAdjust="spacing" textLength="118.75" x="62.5" y="1707.6192">[login_trials &lt; 3]</text><polygon fill="#2FA4E7" points="461.9792,1744.1854,451.5625,1748.3521,461.9792,1752.5187,457.8125,1748.3521" style="stroke:#2FA4E7;stroke-width:1.0416666666666667;"/><line style="stroke:#2FA4E7;stroke-width:3.125;stroke-dasharray:2.0,2.0;" x1="455.7292" x2="800.5208" y1="1748.3521" y2="1748.3521"/><text fill="#343A40" font-family="Verdana" font-size="12.5" font-weight="bold" lengthAdjust="spacing" textLength="18.75" x="473.4375" y="1738.4359">22</text><text fill="#343A40" font-family="Verdana" font-size="12.5" font-weight="bold" lengthAdjust="spacing" textLength="35.4167" x="506.7708" y="1738.4359">Error</text><text fill="#343A40" font-family="Verdana" font-size="12.5" lengthAdjust="spacing" textLength="247.9167" x="546.3542" y="1738.4359">"failed login attempt &lt;login_trials&gt;/3"</text><polygon fill="#CD5C5C" points="97.3958,1784.377,86.9792,1788.5437,97.3958,1792.7104,93.2292,1788.5437" style="stroke:#CD5C5C;stroke-width:1.0416666666666667;"/><line style="stroke:#CD5C5C;stroke-width:3.125;stroke-dasharray:2.0,2.0;" x1="91.1458" x2="444.2708" y1="1788.5437" y2="1788.5437"/><text fill="#343A40" font-family="Verdana" font-size="12.5" font-weight="bold" lengthAdjust="spacing" textLength="18.75" x="108.8542" y="1778.6275">23</text><text fill="#343A40" font-family="Verdana" font-size="12.5" font-weight="bold" lengthAdjust="spacing" textLength="33.3333" x="142.1875" y="1778.6275">Alert</text><text fill="#343A40" font-family="Verdana" font-size="12.5" lengthAdjust="spacing" textLength="247.9167" x="179.6875" y="1778.6275">"failed login attempt &lt;login_trials&gt;/3"</text><line style="stroke:#59B6EC;stroke-width:1.0416666666666667;stroke-dasharray:2.0,2.0;" x1="41.6667" x2="1013.0208" y1="1805.2104" y2="1805.2104"/><text fill="#343A40" font-family="Verdana" font-size="12.5" font-weight="bold" lengthAdjust="spacing" textLength="104.1667" x="52.0833" y="1822.9858">[password OK]</text><line style="stroke:#2FA4E7;stroke-width:3.125;" x1="811.9792" x2="855.7292" y1="1863.7187" y2="1863.7187"/><line style="stroke:#2FA4E7;stroke-width:3.125;" x1="855.7292" x2="855.7292" y1="1863.7187" y2="1877.2603"/><line style="stroke:#2FA4E7;stroke-width:3.125;" x1="813.0208" x2="855.7292" y1="1877.2603" y2="1877.2603"/><polygon fill="#2FA4E7" points="823.4375,1873.0937,813.0208,1877.2603,823.4375,1881.427,819.2708,1877.2603" style="stroke:#2FA4E7;stroke-width:1.0416666666666667;"/><text fill="#343A40" font-family="Verdana" font-size="12.5" font-weight="bold" lengthAdjust="spacing" textLength="18.75" x="824.4792" y="1853.8025">24</text><text fill="#343A40" font-family="Verdana" font-size="12.5" lengthAdjust="spacing" textLength="20.8333" x="857.8125" y="1853.8025">set</text><text fill="#343A40" font-family="Verdana" font-size="12.5" font-weight="bold" lengthAdjust="spacing" textLength="106.25" x="882.8125" y="1853.8025">login_trials = 0</text><polygon fill="#2FA4E7" points="461.9792,1913.2853,451.5625,1917.452,461.9792,1921.6187,457.8125,1917.452" style="stroke:#2FA4E7;stroke-width:1.0416666666666667;"/><line style="stroke:#2FA4E7;stroke-width:3.125;stroke-dasharray:2.0,2.0;" x1="455.7292" x2="800.5208" y1="1917.452" y2="1917.452"/><text fill="#343A40" font-family="Verdana" font-size="12.5" font-weight="bold" lengthAdjust="spacing" textLength="18.75" x="473.4375" y="1907.5358">25</text><text fill="#343A40" font-family="Verdana" font-size="12.5" lengthAdjust="spacing" textLength="90.625" x="506.7708" y="1907.5358">Login success</text><line style="stroke:#2FA4E7;stroke-width:3.125;" x1="450.5208" x2="494.2708" y1="1957.6436" y2="1957.6436"/><line style="stroke:#2FA4E7;stroke-width:3.125;" x1="494.2708" x2="494.2708" y1="1957.6436" y2="1971.1853"/><line style="stroke:#2FA4E7;stroke-width:3.125;" x1="451.5625" x2="494.2708" y1="1971.1853" y2="1971.1853"/><polygon fill="#2FA4E7" points="461.9792,1967.0186,451.5625,1971.1853,461.9792,1975.352,457.8125,1971.1853" style="stroke:#2FA4E7;stroke-width:1.0416666666666667;"/><text fill="#343A40" font-family="Verdana" font-size="12.5" font-weight="bold" lengthAdjust="spacing" textLength="18.75" x="463.0208" y="1947.7275">26</text><text fill="#343A40" font-family="Verdana" font-size="12.5" lengthAdjust="spacing" textLength="166.6667" x="496.3542" y="1947.7275">redirect to welcome page</text><polygon fill="#2FA4E7" points="97.3958,2007.2103,86.9792,2011.377,97.3958,2015.5436,93.2292,2011.377" style="stroke:#2FA4E7;stroke-width:1.0416666666666667;"/><line style="stroke:#2FA4E7;stroke-width:3.125;stroke-dasharray:2.0,2.0;" x1="91.1458" x2="444.2708" y1="2011.377" y2="2011.377"/><text fill="#343A40" font-family="Verdana" font-size="12.5" font-weight="bold" lengthAdjust="spacing" textLength="18.75" x="108.8542" y="2001.4608">27</text><text fill="#343A40" font-family="Verdana" font-size="12.5" lengthAdjust="spacing" textLength="134.375" x="142.1875" y="2001.4608">show welcome page</text><!--SRC=[dLPDRzim3BthLt39eO2xD0Dw2ve2tPfXHOjrQB73i0w5OhEs45dA9BfP__qasqdanCv7VSY7HVAHxv6IJZAYkHqDXtF95HMvF8jrFhJujq0Luo0HF3KyPoTN1MNQZE2RjfRdC94BdjcCVQ0CSuGOJI6HAqQ29CATJeM2npe8NDT1U45Q5VaK3UCnQGC_hVl9x4oeENS6CENnB3MwKCaNBTrwVv49GiR6OtZa-Tn5Vi1KM3ASX5Om7ZCV0GQNyDLeHSyJbOngamf3l7B2zUBwLOcSOFF_oiv7_EnogGAM6DUS-DfzkSYMFveU5Wcav-2PZE3ImXW-1QRDVEzleTSeonPnZDRsgk8k1eFG-agYeIw7eA1LXi6xDGzjl7tdhoBrPgIhvFSJs9PWfVqFdc8xz2RfNjpAfrtEYN9Q0kPSo9Q4e2z5cj5K5jWjRZTu9zwSMxlG9ja3sGgokydQCAlw7_oyMDhZlpkXHWi725DkHGon5AW8h4WGNhaKITa_Jwfaz-EgQB1lYlW_nhWawEUkqTwCjWX2bKxkUruG0_S4SB_xGhdTGXbC_ZXid-i8egZiroY2tatjVEETUuoXT17xX76ctAodRx0ZTdEst9l2SrWsgNDuqQnqQ1CZvCRRRCq7z1DkPezSvbenzAEnKNG9LH84YKQhJWZmdrjbmK1lr1xm7aKJOxG92QXYyIGnRcQVLDaEIXEy-7sljqVVUk8QW4syBSBtuBNl3vKwvVORCb1LNXBfMPeBDQkMUHoxS0J2EbdY6IQbqP4C_T95IwHX8YoVIapEUaq9EqK-WgJ38DivyYjRF0MnxczBanLRwvvQk23fUezPMhKV9b4K7YMdfr74LXvD9Hf7pkKOpXjskn3kNDaLRLTL_WwasxTJm7DuSLs2IJsQd0ZpETdULgpz6eRF4NfsPF2ataAXCsvXYgXgkRVpwnPy-LJ2hoLjS7-nGVq1rBMb3HTXrClXUJFHmqayWi1tv740MU6BhOr_TUm40zFThFvkrHm9VxlQwDSkmgk3jhullPFChYFMiIeCnkJlJmkKxXgDhhIqqtbrIDfCBxezMjaDYLqHx3_-0m00]--></g></svg>